<?xml version="1.0" encoding="UTF-8" standalone="no"?>
<!-- Generator: Adobe Illustrator 16.0.0, SVG Export Plug-In . SVG Version: 6.00 Build 0)  -->

<svg
   xmlns:osb="http://www.openswatchbook.org/uri/2009/osb"
   xmlns:dc="http://purl.org/dc/elements/1.1/"
   xmlns:cc="http://creativecommons.org/ns#"
   xmlns:rdf="http://www.w3.org/1999/02/22-rdf-syntax-ns#"
   xmlns:svg="http://www.w3.org/2000/svg"
   xmlns="http://www.w3.org/2000/svg"
   xmlns:sodipodi="http://sodipodi.sourceforge.net/DTD/sodipodi-0.dtd"
   xmlns:inkscape="http://www.inkscape.org/namespaces/inkscape"
   version="1.1"
   id="Camada_1"
   x="0px"
   y="0px"
   width="1086.4963"
   height="707.90271"
   viewBox="0 0 1086.4963 707.90271"
   enable-background="new 0 0 1190 842"
   xml:space="preserve"
   sodipodi:docname="subsecoes_inteiras.svg"
   inkscape:version="0.92.3 (2405546, 2018-03-11)"
   inkscape:label="Camada"><metadata
   id="metadata3421"><rdf:RDF><cc:Work
       rdf:about=""><dc:format>image/svg+xml</dc:format><dc:type
         rdf:resource="http://purl.org/dc/dcmitype/StillImage" /><dc:title /></cc:Work></rdf:RDF></metadata><defs
   id="defs3419"><linearGradient
     id="linearGradient2924"
     osb:paint="solid"><stop
       style="stop-color:#0c7f08;stop-opacity:1;"
       offset="0"
       id="stop2922" /></linearGradient></defs><sodipodi:namedview
   pagecolor="#ffffff"
   bordercolor="#666666"
   borderopacity="1"
   objecttolerance="10"
   gridtolerance="10"
   guidetolerance="10"
   inkscape:pageopacity="0"
   inkscape:pageshadow="2"
   inkscape:window-width="1600"
   inkscape:window-height="837"
   id="namedview3417"
   showgrid="false"
   inkscape:zoom="1.4142136"
   inkscape:cx="588.40839"
   inkscape:cy="283.44054"
   inkscape:window-x="-4"
   inkscape:window-y="-4"
   inkscape:window-maximized="1"
   inkscape:current-layer="Camada_1" />



<path
   style="fill:#4527a0;fill-opacity:1;stroke:#ffffff;stroke-width:1px;stroke-linecap:butt;stroke-linejoin:miter;stroke-opacity:1"
   d="m 261.96016,384.404 -7.848,0.432 -6.552,-3.6 -6.696,0.217 -6.84,-4.393 -7.848,-2.016 -1.224,-4.753 -23.544,-2.664 -2.376,1.872 -5.112,-0.071 -8.712,1.584 -5.041,-4.032 h -11.448 l -3.528,-5.688 h -19.368 l -8.712,-6.983 -6.768,-3.168 -12.456,-2.592 -2.304,1.8 -1.872,14.111 -8.712,2.232 -1.656,-4.319 -18.000001,-0.721 -3.96,-1.584 -4.536,2.521 -5.472,-0.793 -4.104,-3.023 -2.376,-3.6 -5.255,0.863 -9.648,4.896 -11.952,-3.168 -7.992,-0.36 -7.056,-3.239 -3.96,0.071 -7.056,6.479 -9.6469997,1.801 -1.79999996,-4.104 1.36799996,-4.969 12.8159997,-12.024 16.2,-5.183 3.744,-5.472 41.76,-24.408 4.824,-4.464 2.52,-5.472 17.640001,-27 3.096,-1.584 7.56,-12.6 11.52,-9.792 2.88,-6.408 -0.432,-8.496 -1.944,-0.792 -3.096,-3.6 2.304,-6.12 3.168,-2.736 3.672,-0.144 1.08,1.512 4.464,-0.216 1.652,0.364 7.2,4.248 0.864,0.936 7.344,4.608 5.472,0.72 1.152,0.216 14.616,0.72 -0.28576,4.85911 1.29376,0.68489 3.96,0.504 5.184,4.32 1.008,0.144 3.096,-0.072 3.528,2.016 3.312,-0.072 -0.28159,2.73253 1.28959,0.29147 4.104,0.36 1.296,-0.648 0.288,-2.232 3.096,-0.936 0.72,-2.52 3.744,-3.024 0.36,-1.152 v -3.384 l 2.16,-0.432 -1.512,-8.784 4.464,-3.096 -0.144,-3.24 1.656,-1.512 1.584,-13.32 2.952,-2.016 -0.36,-3.384 1.368,-1.224 0.648,-1.44 0.144,8.856 h -0.72 l 0.72,18.72 h -0.72 l -1.368,5.544 -4.32,6.984 0.144,2.016 0.288,1.296 11.952,2.16 -4.536,8.136 0.936,1.296 5.112,1.08 0.144,2.52 -1.656,1.8 v 2.376 l 2.376,2.88 0.648,1.368 0.72,1.008 4.464,0.288 0.576,2.592 4.248,-0.216 0.144,3.312 1.081,0.215 2.376,2.016 h 2.088 l 1.44,-0.72 14.328,4.464 1.152,-0.216 0.36596,4.59535 1.21604,0.15765 12.024,1.872 4.896,4.176 11.016,-0.072 v 5.976 l -0.431,1.656 -1.08,16.344 -1.44,8.928 -3.744,6.768 -0.792,9.72 -1.44,3.744 -8.59645,0.33181 -0.18755,1.46819 -0.216,26.641 -10.39724,0.70607 -0.11476,1.52493 0.144,9.576 -3.168,0.936 -0.72,4.464 z"
   id="30"
   inkscape:connector-curvature="0"
   inkscape:label="Presidente Prudente"
   onmouseover="style.fill=&quot;rgb(126, 87, 194)&quot;"
   onmouseout="style.fill=&quot;rgb(69, 39, 160)&quot;" />
   
   <path
   style="fill:#c62828;fill-opacity:1;stroke:#ffffff;stroke-width:1px;stroke-linecap:butt;stroke-linejoin:miter;stroke-opacity:1"
   d="m 261.96016,384.404 7.632,1.728 3.744,6.41 4.824,3.527 0.864,8.712 10.8,1.44 3.096,-6.048 4.104,-0.72 4.248,2.088 8.424,-1.44 4.824,4.752 14.76,-0.145 0.288,-3.815 5.688,1.08 1.581,0.507 2.592,-2.088 1.224,-2.664 0.792,-12.456 h 3.312 l 2.304,-4.392 0.288,-5.832 1.368,-1.295 4.248,-0.29 2.016,2.593 7.776,-0.143 1.224,-0.074 2.808,-3.382 1.08,-0.649 0.288,-6.263 -2.016,-2.737 -1.224,-4.969 -1.296,0.074 h -5.616 l -1.368,-0.937 -0.936,-5.184 -5.688,-0.073 -2.16,1.658 -8.136,-0.937 -1.512,-8.137 -2.736,-1.799 -2.376,-1.656 h -2.592 l -3.816,2.16 -2.448,-1.081 v -4.895 l 1.8,-2.088 -0.36,-5.616 1.8,-2.951 -3.528,-4.609 1.152,-6.408 3.672,-5.688 0.072,-1.944 -0.072,-1.44 -7.92,-2.016 -2.592,-7.128 -1.08,-0.936 -2.808,0.072 -0.359,-3.096 -6.336,-3.528 -4.104,-0.216 -4.464,-3.816 -4.249,-0.432 v 0 l -1.15085,0.34612 0.0699,4.62188 -0.431,1.656 -1.08,16.344 -1.44,8.928 -3.744,6.768 -0.792,9.72 -1.44,3.744 -8.59645,0.33181 -0.40355,28.10919 -10.39724,0.70607 0.0292,11.10093 -3.168,0.936 -0.72,4.464 z"
   id="5"
   inkscape:connector-curvature="0"
   inkscape:label="Assis"
   onmouseover="style.fill=&quot;rgb(239, 83, 80)&quot;"
   onmouseout="style.fill=&quot;rgb(198, 40, 40)&quot;" />
   
   <path
   style="fill:#c62828;fill-opacity:1;stroke:#ffffff;stroke-width:1px;stroke-linecap:butt;stroke-linejoin:miter;stroke-opacity:1"
   d="m 364.91716,357.839 1.224,4.969 2.016,2.737 -0.288,6.263 -1.08,0.649 -2.808,3.382 -9,0.217 -2.016,-2.593 -4.248,0.29 -1.368,1.295 -0.288,5.832 -2.304,4.392 h -3.312 l -0.792,12.456 -1.224,2.664 -2.592,2.088 -1.581,-0.507 1.368,3.527 22.824,1.8 2.304,-2.735 2.16,-0.72 5.04,-0.432 3.672,-1.656 6.336,-1.008 3.384,9.071 4.176,2.016 1.224,9.433 6.624,0.863 3.6,1.729 2.448,2.16 4.824,0.937 2.304,4.247 4.464,2.521 1.8,2.952 0.504,3.527 1.8,2.809 1.296,7.056 0.288,6.336 5.688,10.872 -0.864,6.192 1.365,0.075 5.328,2.015 6.336,1.367 1.512,3.889 3.024,0.72 1.296,-0.36 1.296,-0.36 11.88,-0.216 0.792,-9 -1.944,-3.888 1.008,-1.152 15.696,0.071 1.224,-14.687 v -1.512 l -0.72,-7.488 -3.096,-0.576 -0.648,-11.448 1.44,-0.72 0.216,-6.84 1.296,-2.088 v -3.168 l 1.008,-0.721 3.024,-3.168 5.112,-9.071 -3.888,-3.456 -1.44,-3.672 3.888,-2.448 -0.936,-16.272 h -0.72 l -3.456,4.032 -11.592,0.432 -5.184,3.312 -1.368,0.504 -1.656,-5.327 v -1.441 l 0.792,-2.952 2.952,-5.328 -0.144,-2.376 -1.44,-2.592 -6.768,-1.296 -3.024,-4.536 0.504,-1.872 -1.656,-1.152 -5.76,-3.024 -5.472,1.44 -0.504,3.961 -1.944,0.215 0.216,7.705 -2.016,0.071 -1.368,0.072 -2.664,0.071 -3.744,-4.391 -5.544,-1.224 -5.328,-2.519 -0.936,-10.584 -3.888,-0.217 -1.656,2.808 -4.32,-0.144 -5.256,-2.232 -1.08,1.873 0.792,0.718 6e-4,0.85946 -1.2246,-0.13846 -6.912,-0.216 -11.664,-5.544 -3.168,-0.216 -5.4,2.736 z"
   id="28"
   inkscape:connector-curvature="0"
   inkscape:label="Ourinhos"
   onmouseover="style.fill=&quot;rgb(239, 83, 80)&quot;"
   onmouseout="style.fill=&quot;rgb(198, 40, 40)&quot;" />
   
   <path
   style="fill:#2e7d32;fill-opacity:1;stroke:#ffffff;stroke-width:1px;stroke-linecap:butt;stroke-linejoin:miter;stroke-opacity:1"
   d="m 474.71716,468.36 -2.88,-1.729 h -0.648 -1.08 l -15.696,-0.071 -1.008,1.152 1.944,3.888 -0.792,9 -11.88,0.216 -2.592,0.72 -3.024,-0.72 -1.512,-3.889 -6.336,-1.367 -5.328,-2.015 -1.365,-0.075 -3.024,1.512 v 11.231 l -1.584,6.696 1.8,1.8 0.432,3.385 2.16,1.584 2.448,0.072 0.576,2.231 -0.18605,12.07065 -0.10195,2.76135 -1.656,2.592 -3.24,2.089 3.384,7.991 6.192,2.52 5.544,15.049 12.816,12.455 2.808,0.648 0.504,1.801 -2.304,7.487 5.832,11.376 6.624,4.465 0.72,0.719 h 0.792 v 5.257 l -0.792,6.048 -5.976,9 -3.744,9 -1.368,14.111 10.656,2.809 12.096,-3.24 3.168,1.944 7.848,0.071 -0.072,-5.543 3.672,0.359 3.024,4.68 19.296,-0.215 3.312,4.247 6.47947,-1.91516 -0.29047,-1.68184 -0.288,-3.672 2.952,-3.024 v -2.233 l -5.256,-3.023 v -2.16 l 0.038,-1.4952 3.75734,-4.52887 3.79775,0.007 6.0555,-3.74201 -0.0209,-4.41793 14.92621,-3.01033 6.04157,-3.05214 -0.007,-3.1497 -3.07305,-5.21929 -7.52549,-0.4504 -0.0139,-1.2541 0.144,-4.823 10.368,-0.143 1.512,1.511 h 2.232 l 1.584,-5.975 h 2.088 l 1.224,0.575 4.752,1.656 v 2.233 l 6.048,2.231 h 4.464 l 4.752,-4.319 1.224,-0.937 h 6.767 l 7.129,-6.264 6.336,-6.625 12.456,-5.975 -2.376,-4.536 -4.752,-5.616 -9.216,-2.304 0.144,-5.112 -5.185,-4.032 -0.071,-3.816 -3.744,-3.239 -0.359,-3.025 -2.593,0.36 -6.336,-0.864 -1.008,-1.728 -6.912,0.217 -0.647,-1.081 -6.121,-13.032 -0.216,-4.896 0.864,-1.224 5.184,-0.792 0.216,-4.32 -2.089,0.072 -0.719,-8.64 1.511,-1.224 13.321,-0.432 5.616,-9.431 -1.8,-2.809 h -5.4 l -2.52,-5.76 -6.336,-2.376 0.073,-5.256 -3.025,-4.175 0.288,-5.545 -4.177,-3.096 -14.831,0.216 -3.816,1.297 v 2.951 l -6.408,3.528 -0.072,8.928 -3.528,0.432 -0.072,6.552 2.448,1.008 -0.144,7.632 2.952,6.12 -0.216,1.224 -14.184,0.792 -4.032,1.296 0.0254,2.39312 -1.32142,0.0549 -6.984,-0.287 v -2.161 h -5.184 v 1.512 h -12.744 l -6.768,2.952 0.008,3.04373 -1.23175,1.34827 -5.472,6.12 -5.4,0.504 -1.872,-3.96 -0.864,-1.008 1.008,-1.512 0.36,-3.816 -0.144,-1.08 0.144,-1.151 0.936,-0.074 -0.072,-4.535 1.296,-0.36 0.144,-5.472 -3.816,-4.536 -0.72,-4.536 -2.232,-1.44 v -6.768 z"
   id="18"
   inkscape:connector-curvature="0"
   inkscape:label="Itapeva"
   onmouseover="style.fill=&quot;RGB(102, 187, 106)&quot;"
   onmouseout="style.fill=&quot;RGB(46, 125, 50)&quot;" />
   
   <path
   style="fill:#2e7d32;fill-opacity:1;stroke:#ffffff;stroke-width:1px;stroke-linecap:butt;stroke-linejoin:miter;stroke-opacity:1"
   d="m 614.82919,559.65603 -12.456,5.975 -6.336,6.625 -7.129,6.264 h -6.767 l -5.976,5.256 h -4.464 l -6.048,-2.231 v -2.233 l -4.752,-1.656 -1.224,-0.575 h -2.088 l -1.584,5.975 h -2.232 l -1.512,-1.511 -10.368,0.143 -0.1301,6.0771 7.52549,0.4504 3.07305,5.21929 0.007,3.1497 -6.04157,3.05214 -14.92621,3.01033 0.0209,4.41793 -6.0555,3.74201 -3.79775,-0.007 -3.75734,4.52887 -0.038,3.6552 5.256,3.023 v 2.233 l -2.952,3.024 0.57847,5.35384 2.52053,-0.67684 5.184,4.392 3.816,-3.743 h 5.976 l 2.304,4.535 5.256,2.953 -0.792,5.255 -3.744,3.745 -2.376,18.863 -3.672,6.624 4.248,9.864 4.608,0.144 8.424,-10.728 3.024,-1.513 h 2.952 l 6.552,5.76 h 8.64 l 2.521,-3.384 2.088,0.072 1.08,2.089 1.009,7.92 4.392,8.567 v 3.024 l -3.313,3.384 6.12,5.976 7.632,1.656 4.608,-0.576 14.977,-8.208 2.807,-7.632 0.289,-7.487 2.304,-0.865 7.416,-8.783 21.744,-20.304 10.079,-6.337 7.704,-3.888 7.776,-5.472 1.224,-3.024 27.072,-11.592 2.521,-4.32 6.407,-3.816 4.681,-4.68 2.735,-0.504 0.864,-2.88 -1.81517,-0.33195 0.0112,-1.17605 h -2.232 v -7.488 l -0.074,-1.296 9.504,-5.688 0.288,-12.889 -2.01793,-0.13038 -0.21207,-1.73962 5.688,-9.288 6.336,-1.225 -0.792,-7.487 h -3.744 l -5.256,-5.185 h -5.257 v -1.801 l -5.975,0.074 -1.512,-0.145 -23.256,-0.072 -2.881,3.96 -10.943,2.303 -1.513,0.074 -1.943,-1.369 -5.111,-0.792 -1.009,1.728 -6.193,3.456 -3.311,-0.288 0.72,-7.92 h -4.464 l -7.92,6.624 -0.36,4.609 -5.184,1.727 -1.512,0.504 h -5.257 l -6.624,-7.057 -5.039,0.145 -1.8,1.728 -3.96,0.144 z"
   id="31"
   inkscape:connector-curvature="0"
   inkscape:label="Registro"
   onmouseover="style.fill=&quot;RGB(102, 187, 106)&quot;"
   onmouseout="style.fill=&quot;RGB(46, 125, 50)&quot;" />
   
   <path
   style="fill:#2e7d32;fill-opacity:1;stroke:#ffffff;stroke-width:1px;stroke-linecap:butt;stroke-linejoin:miter;stroke-opacity:1"
   d="m 720.31316,607.028 -1.81517,-0.33195 0.0112,-1.17605 h -2.232 l -0.074,-8.784 9.504,-5.688 0.288,-12.889 -2.01793,-0.13038 -0.21207,-1.73962 5.688,-9.288 6.336,-1.225 -0.792,-7.487 1.00797,-1.225 8.424,-2.376 2.952,-6.048 4.176,-3.384 0.935,-1.295 4.393,-0.649 1.008,0.072 2.592,-0.072 1.728,7.273 17.352,-0.289 1.14942,-0.29495 0.003,-1.43305 12.672,-7.487 5.687,0.647 0.793,2.159 4.104,0.937 1.368,3.888 3.96,1.728 1.442,0.283 -2.735,1.584 -3.312,5.185 -10.801,0.287 -9.432,2.736 -6.191,3.815 -4.104,1.225 -2.448,2.231 -3.815,1.008 -2.376,1.225 -5.473,4.536 -6.408,2.088 -3.528,3.096 -6.263,3.313 -9.792,8.208 -4.607,8.352 -2.088,5.904 -7.057,1.512 z"
   id="41"
   inkscape:connector-curvature="0"
   inkscape:label="São Vicente"
   onmouseover="style.fill=&quot;RGB(102, 187, 106)&quot;"
   onmouseout="style.fill=&quot;RGB(46, 125, 50)&quot;" />
   
   <path
   style="fill:#2e7d32;fill-opacity:1;stroke:#ffffff;stroke-width:1px;stroke-linecap:butt;stroke-linejoin:miter;stroke-opacity:1"
   d="m 796.32369,541.36029 2.75289,0.36771 0.793,2.159 4.104,0.937 1.368,3.888 3.96,1.728 1.442,0.283 2.16058,0.792 v 4.176 l 4.968,2.808 4.247,-3.6 8.929,-1.296 3.096,-8.568 3.888,-3.096 0.864,-5.399 3.024,-3.528 8.063,-1.513 8.136,-3.743 6.984,-0.648 2.304,-1.439 8.712,-0.504 1.581,-0.213 1.872,-9.287 -0.1857,-1.50916 -1.2533,-0.004 -2.809,-4.32 -10.12526,0.39369 0.11826,1.62231 v 3.025 l -9.72,2.159 -7.487,0.072 v 1.512 h -5.256 l -1.009,-0.648 -4.896,-0.072 -3.816,1.44 -0.792,2.304 h -1.44 v -2.304 h -5.256 l -1.512,3.745 -2.521,0.071 -0.935,0.647 -2.16,1.153 -3.025,0.072 -13.319,3.815 -0.72,1.081 -0.504,2.448 -1.656,0.792 -3.6,4.032 0.144,3.023 z"
   id="34"
   inkscape:connector-curvature="0"
   inkscape:label="Santos"
   onmouseover="style.fill=&quot;RGB(102, 187, 106)&quot;"
   onmouseout="style.fill=&quot;RGB(46, 125, 50)&quot;" /><g
   id="13"
   style="fill:#2e7d32;fill-opacity:1;stroke:#ffffff;stroke-opacity:1"
   inkscape:label="Caraguatatuba"
   transform="translate(-37.202841,-106.808)"
   onmouseover="style.fill=&quot;RGB(102, 187, 106)&quot;"
   onmouseout="style.fill=&quot;RGB(46, 125, 50)&quot;">
   
   <path
     inkscape:connector-curvature="0"
     id="path652"
     d="m 916.5893,620.96384 0.1857,1.50916 -1.872,9.287 -1.581,0.213 0.721,1.008 10.44,0.576 13.536,6.767 7.488,0.792 4.536,2.952 5.328,-0.864 0.216,-1.439 2.88,1.367 4.968,-0.936 1.08,-2.952 0.648,-6.983 -1.152,-0.217 0.288,-2.951 -2.808,-1.153 1.08,-10.655 7.992,-1.296 2.016,-1.944 h 6.984 l 5.399,0.792 3.744,-7.271 2.159,-0.721 3.025,3.024 2.951,0.72 2.664,-3.6 1.656,-0.864 2.736,1.872 2.52,-2.52 -0.072,-6.408 2.52,-1.729 -0.359,-4.608 8.424,-1.943 5.976,-2.231 v -3.024 l 5.257,-0.72 2.232,1.512 9,3.672 5.327,-3.672 0.216,-4.32 -2.304,-5.256 -4.464,-1.44 -0.792,-3.023 -3.744,-1.512 -0.3448,-4.84567 -1.1692,-0.26533 -5.688,-0.792 -7.993,3.096 -3.527,3.528 -0.864,4.823 -7.3075,0.33228 -0.1085,1.25272 -0.575,5.327 -7.273,0.217 -2.952,4.464 -1.152,1.368 -0.865,2.736 -10.295,5.256 -4.248,1.512 -9.36,7.128 -13.177,1.008 -1.223,1.296 -2.016,2.952 -6.408,0.288 -4.752,6.336 -3.672,0.36 -0.144,-3.168 h -9 l -0.864,1.369 -0.288,1.367 -3.168,0.072 -3.887,3.168 z"
     style="fill:#2e7d32;fill-opacity:1;stroke:#ffffff;stroke-width:1px;stroke-linecap:butt;stroke-linejoin:miter;stroke-opacity:1" /><path
     inkscape:connector-curvature="0"
     id="path654"
     d="m 954.8595,654.34225 2.29956,-4.09739 11.80439,-10.3271 0.75258,-4.73848 0.0279,-5.54681 9.50484,0.11149 4.2925,3.23332 1.58879,2.6201 0.0279,3.84653 -1.44942,0.78046 -0.0279,4.96146 -2.50861,5.63043 3.95803,0.69684 0.0557,4.93359 -1.08706,2.06263 -6.57812,0.9477 -1.50517,-4.68273 -6.13215,0.0557 -0.86408,1.53304 H 957.5911 Z"
     style="fill:#2e7d32;fill-opacity:1;stroke:#ffffff;stroke-width:1px;stroke-linecap:butt;stroke-linejoin:miter;stroke-opacity:1" /><path
     inkscape:connector-curvature="0"
     id="path656"
     d="m 991.28826,637.43532 6.89831,0.51244 1.83303,1.95124 -1.51768,3.48858 -5.24272,-0.57158 z"
     style="fill:#2e7d32;fill-opacity:1;stroke:#ffffff;stroke-width:1px;stroke-linecap:butt;stroke-linejoin:miter;stroke-opacity:1" /><path
     inkscape:connector-curvature="0"
     id="path658"
     d="m 1006.3556,632.50343 0.446,5.60256 4.9615,-0.97557 0.8083,-5.67224 z"
     style="fill:#2e7d32;fill-opacity:1;stroke:#ffffff;stroke-width:1px;stroke-linecap:butt;stroke-linejoin:miter;stroke-opacity:1" /></g><path
   style="fill:#2e7d32;fill-opacity:1;stroke:#ffffff;stroke-width:1px;stroke-linecap:butt;stroke-linejoin:miter;stroke-opacity:1"
   d="m 969.53766,469.84328 7.3075,-0.33228 0.864,-4.823 3.527,-3.528 7.993,-3.096 6.8572,1.05733 -0.2302,-2.93033 5.54304,-2.088 1.512,-4.681 3.024,-19.439 8.28,-0.576 0.504,-4.248 6.408,-0.432 4.607,-2.231 12.961,-2.952 2.735,-3.816 2.232,-0.144 5.112,3.096 3.023,-2.232 8.208,-0.792 14.616,-6.12 2.016,-7.487 9.288,-5.473 -1.578,-6.697 -2.735,-1.871 -1.656,-3.816 -13.463,-2.88 -4.681,-2.952 -4.824,-0.145 -1.943,3.097 -6.769,3.384 -15.407,-0.504 -3.457,-2.16 v -6.768 l -5.327,-5.04 -5.328,-9.433 -4.177,-4.464 -7.416,-0.144 -7.27104,2.808 -8.496,2.448 -13.248,0.216 -3.744,2.305 -7.488,2.231 -4.535,5.977 -6.769,3.023 -5.256,4.536 h -8.208 l -1.512,2.159 -6.048,1.513 -0.656,1.44 -1.872,6.697 0.144,1.224 3.239,2.808 0.289,5.472 4.104,5.184 0.792,24.193 1.368,1.08 1.368,0.718 1.512,2.162 1.151,-0.145 6.193,-3.672 9.072,-0.072 0.216,5.184 3.456,1.224 1.512,3.096 -2.808,14.328 -0.143,1.368 -0.937,4.536 4.464,1.945 -1.367,8.567 3.743,0.36 z"
   id="16"
   inkscape:connector-curvature="0"
   inkscape:label="Guaratinguetá"
   onmouseover="style.fill=&quot;RGB(102, 187, 106)&quot;"
   onmouseout="style.fill=&quot;RGB(46, 125, 50)&quot;" />
   
   <path
   style="fill:#2e7d32;fill-opacity:1;stroke:#ffffff;stroke-width:1px;stroke-linecap:butt;stroke-linejoin:miter;stroke-opacity:1"
   d="m 919.53216,500.112 13.177,-1.008 9.36,-7.128 4.248,-1.512 10.295,-5.256 0.865,-2.736 4.104,-5.832 7.273,-0.217 0.575,-5.327 -3.743,-0.36 1.367,-8.567 -4.464,-1.945 3.888,-20.232 -1.512,-3.096 -3.456,-1.224 -0.216,-5.184 -9.072,0.072 -6.193,3.672 -1.151,0.145 -1.512,-2.162 -1.368,-0.718 -1.368,-1.08 -0.792,-24.193 -4.104,-5.184 -0.289,-5.472 -3.239,-2.808 -0.144,-1.224 1.872,-6.697 0.656,-1.44 -2.232,-4.464 -4.536,-1.513 -2.951,1.513 -5.256,3.744 h -3.744 l -0.792,-5.257 -5.257,0.792 -2.664,2.521 -1.8,-2.664 1.513,-3.815 -1.656,-2.017 -9.648,1.44 -2.304,1.512 0.792,9 -2.952,1.512 -5.256,0.72 -2.305,2.232 1.44,4.248 7.92,1.944 0.36,3.6 -7.416,5.256 0.208,1.586 1.801,3.239 3.815,0.288 2.232,3.744 7.344,-0.216 0.72,1.296 -0.145,3.6 -3.671,2.592 v 2.232 l -1.295,1.368 v 8.28 l 5.975,0.72 5.256,10.871 1.441,6.337 v 1.441 l -1.945,1.584 -1.8,0.718 -12.095,6.265 -6.625,1.512 -4.321,4.392 0.433,5.544 10.656,0.287 7.703,-5.111 1.225,0.576 6.12,3.817 1.368,1.296 1.945,5.687 -1.153,6.48 6.768,4.537 z"
   id="43"
   inkscape:connector-curvature="0"
   inkscape:label="Taubaté"
   onmouseover="style.fill=&quot;RGB(102, 187, 106)&quot;"
   onmouseout="style.fill=&quot;RGB(46, 125, 50)&quot;" />
   
   <path
   style="fill:#2e7d32;fill-opacity:1;stroke:#ffffff;stroke-width:1px;stroke-linecap:butt;stroke-linejoin:miter;stroke-opacity:1"
   d="m 919.53216,500.112 -1.223,1.296 -2.016,2.952 -6.408,0.288 -4.752,6.336 -3.672,0.36 -0.144,-3.168 h -9 l -0.864,1.369 -1.152,-3.529 -3.313,-2.232 -2.159,-10.08 -3.456,-0.073 -0.288,-2.447 -4.464,-0.216 -1.801,-1.007 -3.455,0.935 -1.08,1.512 h -6.408 l -1.872,-1.008 -2.952,-13.608 -3.672,-0.288 -9.792,-9.864 -0.72,-1.08 -1.224,-2.664 -2.88,-0.36 -0.144,-6.264 -2.448,-2.376 -5.04,-2.448 -4.607,-3.817 -0.361,-1.223 0.071,-2.664 4.681,-5.4 0.937,-1.656 2.302,-3.744 5.977,-3.024 0.648,-4.392 0.26103,-1.64203 7.37097,0.058 2.952,-2.232 0.6355,-11.20877 10.0275,-2.54423 5.257,-5.257 2.304,-0.791 2.159,5.327 3.024,0.721 1.513,-3.024 7.56,-2.232 0.208,1.586 1.801,3.239 3.815,0.288 2.232,3.744 7.344,-0.216 0.72,1.296 -0.145,3.6 -3.671,2.592 v 2.232 l -1.295,1.368 v 8.28 l 5.975,0.72 5.256,10.871 1.441,6.337 v 1.441 l -1.945,1.584 -1.8,0.718 -12.095,6.265 -6.625,1.512 -4.321,4.392 0.433,5.544 10.656,0.287 7.703,-5.111 1.225,0.576 6.12,3.817 1.368,1.296 1.945,5.687 -1.153,6.48 6.768,4.537 z"
   id="39"
   inkscape:connector-curvature="0"
   inkscape:label="São José dos Campos"
   onmouseover="style.fill=&quot;RGB(102, 187, 106)&quot;"
   onmouseout="style.fill=&quot;RGB(46, 125, 50)&quot;" />
   
   <path
   style="fill:#2e7d32;fill-opacity:1;stroke:#ffffff;stroke-width:1px;stroke-linecap:butt;stroke-linejoin:miter;stroke-opacity:1"
   d="m 844.86916,466.56 0.72,1.08 9.792,9.864 3.672,0.288 2.952,13.608 1.872,1.008 h 6.408 l 1.08,-1.512 3.455,-0.935 1.801,1.007 4.464,0.216 0.288,2.447 3.456,0.073 2.159,10.08 3.313,2.232 1.152,3.529 -0.288,1.367 -3.168,0.072 -3.887,3.168 -5.977,-1.6e-4 -2.809,-4.31984 -10.12526,0.39353 0.11826,1.62247 v 3.02484 l -9.72,2.15916 -7.487,0.072 v 1.512 l -5.256,-1.6e-4 -1.009,-0.648 -4.896,-0.072 -3.816,1.44016 -0.792,2.304 -1.44,-1.6e-4 V 519.336 h -5.256 l -1.512,3.74484 -2.521,0.0712 -2.086,-6.336 -2.233,-0.072 -1.224,-5.544 -2.161,-2.52 -3.527,-1.944 -0.288,-3.744 5.544,-1.944 2.448,-5.544 1.655,-2.16 0.433,-4.104 2.017,-0.071 0.143,-1.081 V 484.992 l 2.088,-2.952 0.864,-1.512 1.512,-3.527 2.231,-1.441 6.193,-3.816 4.608,-0.361 v -2.951 z"
   id="26"
   inkscape:connector-curvature="0"
   inkscape:label="Mogi das Cruzes"
   onmouseover="style.fill=&quot;RGB(102, 187, 106)&quot;"
   onmouseout="style.fill=&quot;RGB(46, 125, 50)&quot;" />
   
   <path
   style="fill:#f9a825;fill-opacity:1;stroke:#ffffff;stroke-width:1px;stroke-linecap:butt;stroke-linejoin:miter;stroke-opacity:1"
   d="m 854.00066,411.5032 -5.5965,1.4148 -2.16,1.729 -2.304,0.216 -0.288,-7.416 h -6.624 l -5.112,1.944 -8.279,0.216 -4.104,0.648 -3.816,-1.08 -0.288,-7.92 3.096,-3.601 -1.151,-4.248 -3.024,-3.024 -3.601,-1.584 -3.312,0.073 -1.728,-1.872 2.016,-4.969 5.256,1.656 1.656,-1.512 0.72,-5.76 -2.088,-1.585 -0.145,-2.375 1.225,-1.801 -0.144,-4.32 -18.289,-8.712 -3.312,-6.552 -6.1198,-1.05968 -0.7272,1.63868 -1.512,2.809 -5.04,0.792 -0.792,3.815 -5.76,4.752 -8.497,0.504 -1.871,3.311 -1.152,1.441 -6.048,6.12 0.144,3.744 -5.113,2.088 0.074,1.008 4.607,0.936 0.863,3.167 2.521,1.369 2.52,6.84 0.504,5.905 -0.072,1.223 -3.24,0.72 1.368,3.24 3.384,2.737 -8.208,2.519 -0.72,1.729 0.792,2.087 -1.512,1.44 -0.216,2.305 -3.528,0.719 -0.072,3.384 1.152,5.256 2.736,4.968 7.128,1.872 3.096,2.736 0.72,1.008 0.288,7.128 8.424,3.168 0.504,1.656 -0.792,1.008 v 3.024 l 10.512,0.792 v -1.511 h 10.44 l 1.512,0.215 3.528,0.648 1.008,0.648 0.505,2.592 5.903,1.944 3.456,0.504 6.191,0.288 7.129,-11.304 5.544,-1.584 0.071,-2.664 4.681,-5.4 3.239,-5.4 5.977,-3.024 0.90903,-6.03403 7.37097,0.058 2.952,-2.232 z"
   id="11"
   inkscape:connector-curvature="0"
   inkscape:label="Bragança Paulista"
   onmouseover="style.fill = &quot;rgb(255, 238, 88)&quot;"
   onmouseout="style.fill = &quot;rgb(249, 168, 37)&quot;" />
   
   <path
   style="fill:#1565c0;fill-opacity:1;stroke:#ffffff;stroke-width:1px;stroke-linecap:butt;stroke-linejoin:miter;stroke-opacity:1"
   d="m 779.06116,458.208 -0.0748,-3.56072 3.96278,0.32072 v -1.511 h 10.44 l 5.04,0.863 1.008,0.648 0.505,2.592 5.903,1.944 3.456,0.504 6.191,0.288 7.129,-11.304 5.544,-1.584 0.361,1.223 4.607,3.817 5.04,2.448 2.448,2.376 0.144,6.264 2.88,0.36 1.224,2.664 -5.04,1.872 v 2.951 l -4.608,0.361 -8.424,5.257 -1.55263,3.74163 -0.82337,1.29737 -2.088,2.952 v 3.096 l -0.143,1.08104 -2.017,0.071 -0.433,4.104 -1.655,2.16 -2.448,5.544 -5.544,1.944 -1.08924,-0.096 -1.28676,-9.91208 3.672,-2.88 v -1.439 l -3.744,-2.881 -3.024,1.152 h -12.24 l -4.68,-3.384 0.504,-6.696 4.031,-2.664 -0.287,-2.305 -3.528,0.793 -2.735,0.432 -3.169,5.832 -5.53763,-0.0689 -0.006,-1.08307 0.072,-4.176 -0.576,-1.008 2.88,-5.977 z"
   id="17"
   inkscape:connector-curvature="0"
   inkscape:label="Guarulhos"
   onmouseover="style.fill = &quot;rgb(66, 165, 245)&quot;"
   onmouseout="style.fill = &quot;rgb(21, 101, 192)&quot;" />
   
   <path
   style="fill:#1565c0;fill-opacity:1;stroke:#ffffff;stroke-width:1px;stroke-linecap:butt;stroke-linejoin:miter;stroke-opacity:1"
   d="m 780.71758,548.568 -0.50442,-1.08 -2.52,-35.64 1.872,-2.664 4.248,-2.952 1.007,0.648 4.249,4.176 0.216,2.088 9.72,15.48 2.448,1.29584 -0.504,2.448 -1.656,0.792 -3.6,4.032 0.144,3.023 0.48653,1.14545 -2.93411,-0.27929 z"
   id="35"
   inkscape:connector-curvature="0"
   inkscape:label="São Bernardo do Campo"
   onmouseover="style.fill = &quot;rgb(66, 165, 245)&quot;"
   onmouseout="style.fill = &quot;rgb(21, 101, 192)&quot;" />
   
   <path
   style="fill:#1565c0;fill-opacity:1;stroke:#ffffff;stroke-width:1px;stroke-linecap:butt;stroke-linejoin:miter;stroke-opacity:1"
   d="m 783.81316,506.232 1.007,0.648 4.249,4.176 0.216,2.088 9.72,15.48 2.448,1.29584 0.72,-1.08084 13.319,-3.815 3.025,-0.0722 2.16,-1.15284 0.935,-0.64696 -2.086,-6.336 -2.233,-0.072 -0.24472,-1.46225 -1.41128,0.31021 -5.904,1.008 -2.161,2.016 -2.159,0.72 -0.216,2.448 -0.86559,1.47484 -2.08641,0.39716 -3.744,-2.952 -2.304,-4.464 1.944,-3.384 -1.728,-1.728 v -5.255 l -2.10262,0.45947 -0.92138,-1.10847 -2.52,-3.312 -4.392,0.504 -1.16013,0.0495 -0.42387,2.03852 z"
   id="33"
   inkscape:connector-curvature="0"
   inkscape:label="Santo André"
   onmouseover="style.fill = &quot;rgb(66, 165, 245)&quot;"
   onmouseout="style.fill = &quot;rgb(21, 101, 192)&quot;" />
   
   <path
   style="fill:#2e7d32;fill-opacity:1;stroke:#ffffff;stroke-width:1px;stroke-linecap:butt;stroke-linejoin:miter;stroke-opacity:1"
   d="m 810.38116,506.73604 -0.36,1.36796 -1.872,0.576 -1.008,-0.216 -1.512,-1.368 -5.328,-0.072 -2.88,-1.08 -1.008,-0.071 v 5.255 l 1.728,1.728 -1.944,3.384 2.304,4.464 3.744,2.952 2.08641,-0.39716 0.86559,-1.47484 0.216,-2.448 2.159,-0.72 2.161,-2.016 7.31528,-1.31821 -0.97928,-4.08171 -2.161,-2.52 z"
   id="25"
   inkscape:connector-curvature="0"
   inkscape:label="Mauá"
   onmouseover="style.fill=&quot;RGB(102, 187, 106)&quot;"
   onmouseout="style.fill=&quot;RGB(46, 125, 50)&quot;" />
   
   <path
   style="fill:#1565c0;fill-opacity:1;stroke:#ffffff;stroke-width:1px;stroke-linecap:butt;stroke-linejoin:miter;stroke-opacity:1"
   d="m 785.31703,502.46546 5.55213,-0.5535 3.44138,4.42047 2.10262,-0.45947 3.888,1.15104 5.328,0.072 1.512,1.368 1.008,0.216 1.872,-0.576 0.36,-1.36796 -0.288,-3.744 -1.08926,-0.096 -1.28676,-9.91208 3.672,-2.88 v -1.439 l -3.744,-2.881 -3.02398,1.15204 h -12.24 l -4.68,-3.384 0.504,-6.696 4.03098,-2.66404 -0.28698,-2.30496 -3.52802,0.79296 -2.735,0.432 -3.16898,5.83204 -5.53765,-0.0689 0.066,-5.25907 -0.576,-1.008 2.88,-5.977 -0.36315,-11.98371 -6.5492,-0.47128 -0.72,0.936 -8.064,0.936 -1.295,1.152 -2.954,0.217 -1.727,-0.289 -0.216,1.728 -0.721,1.368 2.593,7.416 0.432,6.84 -2.016,3.672 -0.936,0.936 2.16,4.104 1.297,0.72 5.039,3.887 -1.224,7.128 -2.304,0.217 -0.216,2.233 -0.36,1.007 -5.688,4.824 -0.288,1.224 5.112,1.945 -0.937,3.599 0.145,1.368 0.721,3.529 -0.649,7.846 -6.049,-0.071 -1.223,3.528 -2.663,0.288 -1.297,-2.304 -4.248,-1.224 -0.864,-0.072 -8.64,0.647 -2.664,1.729 -1.14475,0.577 0.42475,2.519 -12.168,0.72 -5.832,11.304 -4.608,0.792 -0.31675,10.1025 4.92478,-0.0225 1.512,0.145 5.975,-0.074 v 1.801 h 5.257 l 5.256,5.185 h 3.744 l 1.00797,-1.225 8.424,-2.376 2.952,-6.048 4.176,-3.384 0.935,-1.295 4.393,-0.649 1.008,0.072 2.592,-0.072 1.728,7.273 17.352,-0.289 1.14942,-0.29495 0.003,-1.43305 -0.50442,-1.08 -2.52,-35.64 1.872,-2.664 4.248,-2.952 1.08,-1.728 z"
   id="40"
   inkscape:connector-curvature="0"
   inkscape:label="São Paulo"
   onmouseover="style.fill = &quot;rgb(66, 165, 245)&quot;"
   onmouseout="style.fill = &quot;rgb(21, 101, 192)&quot;" />
   
   <path
   style="fill:#1565c0;fill-opacity:1;stroke:#ffffff;stroke-width:1px;stroke-linecap:butt;stroke-linejoin:miter;stroke-opacity:1"
   d="m 730.82841,525.81704 3.80875,-2.306 8.64,-0.647 0.864,0.072 4.248,1.224 1.297,2.304 2.663,-0.288 1.223,-3.528 6.049,0.071 0.649,-7.846 -0.721,-3.529 -0.145,-1.36796 0.937,-3.599 -5.112,-1.945 0.288,-1.22404 5.688,-4.82396 0.36,-1.00704 0.216,-2.23296 2.304,-0.217 1.224,-7.12804 -5.039,-3.887 -1.297,0.216 v 2.304 l -6.624,0.72 -0.648,2.088 v 0.936 l -0.288,5.543 -6.841,-1.151 -1.151,0.433 -2.88,4.175 -3.385,1.44 -0.431,1.008 0.431,2.377 -1.151,2.664 -2.376,-0.792 -0.504,-2.161 -10.584,-0.215 -1.08,0.863 2.304,1.513 2.232,3.743 v 5.257 l 3.743,3.743 z"
   id="27"
   inkscape:connector-curvature="0"
   inkscape:label="Osasco"
   onmouseover="style.fill = &quot;rgb(66, 165, 245)&quot;"
   onmouseout="style.fill = &quot;rgb(21, 101, 192)&quot;" />
   
   <path
   style="fill:#1565c0;fill-opacity:1;stroke:#ffffff;stroke-width:1px;stroke-linecap:butt;stroke-linejoin:miter;stroke-opacity:1"
   d="m 756.81316,479.08804 2.16,4.104 1.297,0.72 -1.297,0.216 v 2.30396 l -6.624,0.72 -0.648,2.088 -0.288,6.479 -6.841,-1.151 -1.151,0.43304 -2.88,4.17496 -3.385,1.44004 -0.431,1.00796 0.431,2.377 -1.151,2.664 -2.376,-0.792 -0.504,-2.16096 -10.584,-0.21504 -1.08,0.86304 -1.728,0.43296 -7.92,-1.009 -0.073,-3.168 0.792,-1.512 3.025,-4.464 v -8.208 l -2.52,-11.088 -0.19313,-1.01137 5.73713,-0.64463 1.224,0.144 1.872,0.288 0.72,-2.233 6.984,-1.655 1.729,-3.384 5.543,-2.52 5.184,-0.72 1.008,-0.145 1.872,0.433 0.936,3.024 3.312,1.799 1.008,3.817 1.801,1.584 2.735,-0.072 1.44,3.312 1.8,0.792 -0.936,0.936 z"
   id="8"
   inkscape:connector-curvature="0"
   inkscape:label="Barueri"
   onmouseover="style.fill = &quot;rgb(66, 165, 245)&quot;"
   onmouseout="style.fill = &quot;rgb(21, 101, 192)&quot;" />
   
   <path
   style="fill:#1565c0;fill-opacity:1;stroke:#ffffff;stroke-width:1px;stroke-linecap:butt;stroke-linejoin:miter;stroke-opacity:1"
   d="m 718.58116,473.688 3.096,0.432 0.72,-2.233 6.984,-1.655 1.729,-3.384 5.543,-2.52 6.192,-0.865 1.872,0.433 0.936,3.024 3.312,1.799 1.008,3.817 1.801,1.584 2.735,-0.072 1.44,3.312 1.8,0.792 2.016,-3.67196 -0.432,-6.84 -2.593,-7.416 0.721,-1.36804 0.216,-1.72796 1.727,0.289 2.954,-0.21704 1.295,-1.152 8.064,-0.936 0.72,-0.93596 V 451.152 l 0.792,-1.008 -0.504,-1.656 -8.424,-3.168 -0.288,-7.128 -3.816,-3.744 -7.128,-1.872 -2.022,-3.60275 -1.218,0.003 -2.664,-0.144 -10.08,5.471 -1.513,0.217 -2.591,-5.544 -1.08,-0.504 -2.52,-0.864 -1.209,-0.166 -1.455,4.702 h -3.527 l -1.009,0.288 -1.728,0.216 -0.217,6.048 2.809,5.761 v 3.023 l -0.576,1.151 -0.145,1.658 -2.303,2.376 -4.392,0.575 0.432,11.016 3.383,2.016 z"
   id="21"
   inkscape:connector-curvature="0"
   inkscape:label="Jundiaí"
   onmouseover="style.fill = &quot;rgb(66, 165, 245)&quot;"
   onmouseout="style.fill = &quot;rgb(21, 101, 192)&quot;" />
   
   <path
   style="fill:#1565c0;fill-opacity:1;stroke:#ffffff;stroke-width:1px;stroke-linecap:butt;stroke-linejoin:miter;stroke-opacity:1"
   d="m 570.62119,455.04003 -0.288,5.545 3.025,4.175 -0.073,5.256 6.336,2.376 2.52,5.76 h 5.4 l 1.8,2.809 -5.616,9.431 -13.321,0.432 -1.511,1.224 0.719,8.64 2.089,-0.072 -0.216,4.32 -5.184,0.792 -0.864,1.224 0.216,4.896 6.768,14.113 6.912,-0.217 1.008,1.728 6.336,0.864 2.593,-0.36 0.359,3.025 3.744,3.239 0.071,3.816 5.185,4.032 -0.144,5.112 9.216,2.304 4.752,5.616 2.376,4.536 0.864,1.07997 3.96,-0.144 1.8,-1.728 5.039,-0.145 6.624,7.057 h 5.257 l 6.696,-2.231 0.36,-4.609 7.92,-6.624 h 4.464 l -0.72,7.92 3.311,0.288 6.193,-3.456 1.009,-1.728 5.111,0.792 1.943,1.369 1.513,-0.074 10.943,-2.303 2.881,-3.96 18.33122,0.0945 0.31675,-10.1025 4.608,-0.79204 5.832,-11.30396 12.168,-0.72004 -1.513,-9.71996 -3.743,-3.74304 v -5.257 l -2.232,-3.74296 -2.304,-1.513 -1.728,0.43296 -7.92,-1.009 -0.073,-3.168 3.817,-5.976 v -8.208 l -2.71313,-12.09937 5.73713,-0.64463 0.863,-7.41575 -3.383,-2.016 -0.432,-11.01625 4.392,-0.575 2.303,-2.37575 0.145,-1.658 0.576,-1.151 -3.816,-0.28825 -4.896,-2.088 -2.088,-0.072 -1.944,-1.655 -2.52,-0.361 -1.152,-2.593 -4.536,-0.503 -1.44,-1.368 -2.376,-0.864 -1.512,-0.143 -4.464,2.447 -4.464,0.143 -0.2275,-6.5055 -1.2125,0.0265 -5.688,0.217 -3.385,-2.017 -1.296,0.288 -10.943,-0.432 -1.288,0.0425 -0.008,5.9335 -0.72,5.256 -3.024,2.232 h -4.464 l -2.232,-8.208 -3.6,-0.36 -1.44,0.288 -10.512,2.592 -1.296,0.072 -6.408,-1.08 h -1.44 l -2.665,0.504 -5.255,6.408 -2.592,2.088 -4.535,-0.792 -1.153,0.504 -5.545,0.288 -4.535,3.672 h -3.744 l -0.648,1.872 -3.024,2.448 -9.217,-1.009 0.307,-2.9585 -1.386,0.006 -9.936,0.074 -3.024,2.591 z"
   id="42"
   inkscape:connector-curvature="0"
   inkscape:label="Sorocaba"
   onmouseover="style.fill = &quot;rgb(66, 165, 245)&quot;"
   onmouseout="style.fill = &quot;rgb(21, 101, 192)&quot;"
   onclick="" /><path
   style="fill:#f9a825;fill-opacity:1;stroke:#ffffff;stroke-width:1px;stroke-linecap:butt;stroke-linejoin:miter;stroke-opacity:1"
   d="m 762.28516,367.631 -1.152,1.441 -6.048,6.12 0.144,3.744 -5.113,2.088 0.074,1.008 4.607,0.936 0.863,3.167 2.521,1.369 2.52,6.84 0.504,5.905 -0.072,1.223 -3.24,0.72 1.368,3.24 3.384,2.737 -8.208,2.519 -0.72,1.729 0.792,2.087 -1.512,1.44 -0.216,2.305 -3.528,0.719 -0.072,3.384 1.152,5.256 0.714,1.36525 -3.882,-0.141 -10.08,5.47075 -1.513,0.217 -2.591,-5.544 -1.08,-0.504 -2.52,-0.86375 -1.209,-0.166 -1.455,4.70175 -3.527,2.5e-4 -1.009,0.288 -1.728,0.216 -0.217,6.04775 2.809,5.76125 V 447.48 l -3.816,-0.288 -4.896,-2.088 -2.088,-0.072 -1.944,-1.655 -2.52,-0.36096 -1.152,-2.59304 -4.536,-0.50296 -1.44,-1.368 -2.376,-0.864 -1.512,-0.143 -4.464,2.447 -4.464,0.143 -0.2275,-6.50554 -6.9005,0.2435 -3.385,-2.017 -1.296,0.28804 -12.231,-0.38954 -0.008,-4.50546 -4.465,-3.025 v -9 l -3.023,-5.256 -0.216,-0.936 1.441,-1.367 4.031,0.071 1.512,1.513 h 2.232 l 0.792,-2.233 h 5.976 l 5.976,-2.304 0.72,-3.024 1.223,-0.504 6.265,0.361 0.792,3.959 h 5.256 l 4.103,-6.839 0.393,-1.4105 1.408,0.1855 5.327,0.359 2.593,-2.087 7.632,-0.936 0.936,-5.399 0.288,-0.721 1.224,-5.688 1.153,-0.576 2.519,0.216 0.144,-1.8 h 8.208 v -5.328 l 0.504,-1.008 2.087,-1.009 -0.792,-4.319 5.761,-1.872 -0.27325,-2.1425 0.99325,-0.0895 11.376,0.288 2.088,1.944 5.832,-0.144 1.46075,0.064 z"
   id="12"
   inkscape:connector-curvature="0"
   inkscape:label="Campinas"
   onmouseover="style.fill = &quot;rgb(255, 238, 88)&quot;"
   onmouseout="style.fill = &quot;rgb(249, 168, 37)&quot;" />
   
   <path
   style="fill:#f9a825;fill-opacity:1;stroke:#ffffff;stroke-width:1px;stroke-linecap:butt;stroke-linejoin:miter;stroke-opacity:1"
   d="m 678.76516,401.68804 1.223,-0.50404 6.265,0.36104 0.792,3.959 h 5.256 l 4.103,-6.839 0.393,-1.4105 1.408,0.1855 5.327,0.359 2.593,-2.087 7.632,-0.936 0.936,-5.39904 1.512,-6.409 1.153,-0.576 2.519,0.21604 0.144,-1.80004 8.208,4e-5 v -5.328 l 0.504,-1.008 2.087,-1.009 -0.792,-4.31904 5.761,-1.87196 -0.27325,-2.1425 0.99325,-0.0895 -0.504,-6.19204 -2.52,-0.144 -1.081,0.072 -1.943,0.288 -1.296,1.296 -4.608,-0.145 -0.792,-1.151 -6.048,-0.144 -4.105,1.728 -1.08,0.648 v 6.696 l -5.255,8.208 -1.512,0.072 -3.888,3.672 -3.6,2.088 -3.96,-1.08 -14.472,4.392 -1.23497,0.44886 0.22697,5.67014 -1.513,2.305 h -1.439 l 0.216,2.447 0.216,4.321 z"
   id="1"
   inkscape:connector-curvature="0"
   inkscape:label="Americana"
   onmouseover="style.fill = &quot;rgb(255, 238, 88)&quot;"
   onmouseout="style.fill = &quot;rgb(249, 168, 37)&quot;" />
   
   <path
   style="fill:#c62828;fill-opacity:1;stroke:#ffffff;stroke-width:1px;stroke-linecap:butt;stroke-linejoin:miter;stroke-opacity:1"
   d="m 470.10916,466.631 h 1.728 l 2.88,1.729 -1.07974,0.79205 v 6.768 l 2.232,1.44 0.72,4.536 3.816,4.536 -0.144,5.472 -1.296,0.36 0.072,4.535 -0.936,0.074 -0.144,1.151 0.144,1.08 -0.36,3.816 -1.008,1.512 0.864,1.008 1.872,3.96 5.4,-0.504 6.70375,-7.46827 -0.008,-3.04373 6.768,-2.952 h 12.744 v -1.512 h 5.184 v 2.161 l 6.984,0.287 1.32142,-0.0549 -0.0254,-2.39312 4.032,-1.296 14.184,-0.792 0.216,-1.224 -2.952,-6.12 0.144,-7.632 -2.448,-1.008 0.072,-6.552 3.528,-0.432 0.072,-8.928 -0.92999,-1.22278 -5.91004,-0.57825 -6.624,-2.59 -1.224,-3.457 1.224,-2.591 1.08,-9.505 -1.872,-27.361 -1.368,-1.223 -7.344,-2.016 -0.288,-6.84 5.76,-3.96 v -1.007 l -1.728,-1.658 -8.064,-0.504 -5.904,-2.303 h -3.6 l -1.296,0.072 -6.48,-0.432 0.792,-4.536 -2.736,-5.688 -2.736,-0.792 -3.312,-8.783 -1.08,-0.074 -5.472,0.074 -4.608,5.183 -1.08,1.152 0.936,16.272 -3.888,2.448 1.44,3.672 3.888,3.456 -5.112,9.071 -3.024,3.168 -1.008,0.721 v 3.168 l -1.296,2.088 -0.216,6.84 -1.44,0.72 0.648,11.448 3.096,0.576 0.72,9 z"
   id="6"
   inkscape:connector-curvature="0"
   inkscape:label="Avaré"
   onmouseover="style.fill=&quot;rgb(239, 83, 80)&quot;"
   onmouseout="style.fill=&quot;rgb(198, 40, 40)&quot;" />
   
   <path
   style="fill:#c62828;fill-opacity:1;stroke:#ffffff;stroke-width:1px;stroke-linecap:butt;stroke-linejoin:miter;stroke-opacity:1"
   d="m 522.16516,395.927 1.728,1.658 v 1.007 l -5.76,3.96 0.288,6.84 7.344,2.016 1.368,1.223 1.872,27.361 -1.08,9.505 -1.224,2.591 1.224,3.457 6.624,2.59 5.91004,0.57825 0.92999,1.22278 6.408,-3.528 v -2.951 l 3.816,-1.297 14.831,-0.216 4.177,3.096 4.10397,-3.45557 11.322,-0.08 -0.307,2.9585 9.217,1.00904 3.024,-2.448 0.648,-1.872 3.744,-4e-5 4.535,-3.67196 5.545,-0.288 1.153,-0.504 v -1.512 l 2.591,-2.52 -0.072,-3.239 -4.032,-0.937 0.072,-6.983 2.592,-1.658 0.504,-1.943 1.44,-1.584 5.544,-0.864 3.312,-4.104 0.36,-1.224 -0.576,-6.985 1.008,-9.143 -0.792,-0.936 -7.703,-1.152 -2.089,-5.689 -0.216,-3.887 h 1.584 l -0.072,-9.648 -8.28,-0.144 -0.289,-10.512 -0.0402,-1.47813 -7.37578,-0.0339 -2.735,-2.377 -4.608,0.288 -0.36,-1.655 h -2.952 l -1.368,-0.072 -13.176,0.576 -0.504,-4.032 -0.936,-1.08 -3.24,-3.743 -3.096,-0.361 -1.296,-0.072 -4.824,-0.288 -1.584,0.648 -3.168,2.737 -4.968,1.079 -5.688,-0.648 -4.536,-2.304 -1.152,0.072 -3.96,-0.145 0.648,1.441 0.576,8.425 -1.656,0.503 0.216,6.048 -0.576,6.048 -1.728,0.144 v 3.456 l -7.632,0.288 -2.952,4.248 -1.512,4.536 z"
   id="10"
   inkscape:connector-curvature="0"
   inkscape:label="Botucatu"
   onmouseover="style.fill=&quot;rgb(239, 83, 80)&quot;"
   onmouseout="style.fill=&quot;rgb(198, 40, 40)&quot;" />
   
   <path
   style="fill:#f9a825;fill-opacity:1;stroke:#ffffff;stroke-width:1px;stroke-linecap:butt;stroke-linejoin:miter;stroke-opacity:1"
   d="m 590.42116,366.768 2.95202,-3e-5 0.35998,1.65503 4.608,-0.288 2.735,2.377 7.3758,0.0339 0.3292,11.99013 8.28,0.144 0.072,9.648 h -1.584 l 0.216,3.887 2.089,5.689 7.703,1.152 0.792,0.936 -1.008,9.143 0.576,6.985 -0.36,1.224 -3.312,4.104 -5.544,0.864 -1.44,1.584 -0.504,1.943 -2.592,1.658 -0.072,6.983 4.032,0.937 0.072,3.239 -2.591,2.52 v 1.51196 l 4.535,0.79204 2.592,-2.088 5.255,-6.40804 2.665,-0.504 h 1.44 l 6.408,1.08004 1.296,-0.072 11.952,-2.88 3.6,0.36 2.232,8.20796 h 4.464 l 3.024,-2.23196 0.72,-5.256 v -10.43896 l -4.465,-3.02504 v -9 l -3.023,-5.25596 -0.216,-0.936 1.441,-1.367 4.031,0.071 1.512,1.513 2.232,-4e-5 0.792,-2.23296 5.976,-4e-5 5.976,-2.30396 0.72,-3.024 -2.448,-1.15204 -0.432,-6.768 h 1.439 l 1.513,-2.305 -0.22697,-5.67014 -0.13303,-4.69686 -6.912,-0.072 -0.504,-4.464 3.312,-3.024 -0.504,-5.616 -3.744,-2.304 -0.144,-3.888 0.143,-1.296 0.3985,-3.27696 1.3315,0.18096 8.495,0.432 0.864,-5.112 4.104,-0.937 0.648,-2.88 -1.152,-0.287 -0.144,-4.104 -1.01,-0.792 0.36,-6.336 2.304,-3.744 v -9 l -1.70256,-0.0363 0.0486,-1.11674 0.359,-3.239 -1.655,-1.872 0.216,-4.68 -6.696,-0.432 -2.449,-2.088 0.792,-0.792 -0.143,-5.112 -1.584,-2.592 -3.096,-0.288 -0.864,-3.24 -5.328,-0.072 -0.432,-3.6 -6.48,0.576 -3.24,1.728 -0.577,5.832 -4.607,1.224 -1.656,5.256 -1.27846,1.1169 -10.60154,0.0351 -0.216,3.024 1.656,3.024 v 3.384 l -1.801,0.576 0.361,4.896 h -0.72 l -3.023,5.976 -4.681,2.952 0.647,5.184 1.729,0.935 -0.432,3.53 -0.144,1.296 -5.328,4.247 -2.448,3.816 -3.24,0.216 -4.32,3.673 -1.296,0.359 h -2.232 l -3.745,-4.464 -6.695,-0.72 -6.12,3.312 -2.376,2.304 -1.584,0.144 z"
   id="29"
   inkscape:connector-curvature="0"
   inkscape:label="Piracicaba"
   onmouseover="style.fill = &quot;rgb(255, 238, 88)&quot;"
   onmouseout="style.fill = &quot;rgb(249, 168, 37)&quot;" />
   
   <path
   style="fill:#f9a825;fill-opacity:1;stroke:#ffffff;stroke-width:1px;stroke-linecap:butt;stroke-linejoin:miter;stroke-opacity:1"
   d="m 733.48516,358.704 -1.081,0.072 -1.943,0.288 -1.296,1.296 -4.608,-0.145 -0.792,-1.151 -6.048,-0.144 -4.105,1.728 -1.08,0.648 v 6.696 l -5.255,8.208 -1.512,0.072 -3.888,3.672 -3.6,2.088 -3.96,-1.08 -15.70697,4.84086 -0.13303,-4.69683 -6.912,-0.072 -0.504,-4.464 3.312,-3.024 -0.504,-5.616 -3.744,-2.304 -0.144,-3.888 0.5415,-4.57296 1.3315,0.18096 8.495,0.432 0.864,-5.112 4.104,-0.937 0.648,-2.88 -1.152,-0.287 -0.144,-4.104 -1.01,-0.792 0.36,-6.336 2.304,-3.744 v -9 l -1.70256,-0.0363 0.4076,-4.35574 -1.655,-1.872 0.0177,-1.40124 1.27825,-0.11175 3.168,-0.503 1.008,-3.528 5.544,-1.584 2.376,-4.464 0.792,-4.104 1.08,-0.936 4.68,1.008 2.087,2.52 7.057,-0.288 2.016,-1.44 1.08,0.216 9.648,0.936 3.528,-1.944 5.688,0.072 3.384,4.752 4.32,0.792 6.336,2.88 h 4.248 l 4.823,-1.008 1.441,-0.072 1.656,-0.432 v 5.184 l -2.232,2.809 -2.376,0.143 1.007,9 4.464,0.361 3.457,2.663 4.536,1.512 v 1.512 l -0.215,1.8 -8.569,8.784 -1.368,0.72 -12.024,0.072 -0.865,-2.017 -4.247,-1.223 -1.656,-5.112 -5.183,-0.503 -1.945,9.431 -3.312,1.441 -1.584,3.815 v 3.096 l 4.753,0.36 z"
   id="22"
   inkscape:connector-curvature="0"
   inkscape:label="Limeira"
   onmouseover="style.fill = &quot;rgb(255, 238, 88)&quot;"
   onmouseout="style.fill = &quot;rgb(249, 168, 37)&quot;" />
   
   <path
   style="fill:#f9a825;fill-opacity:1;stroke:#ffffff;stroke-width:1px;stroke-linecap:butt;stroke-linejoin:miter;stroke-opacity:1"
   d="m 786.48436,350.00932 -2.2392,4.44768 -5.04,0.792 -0.792,3.815 -5.76,4.752 -8.497,0.504 -1.871,3.311 -6.48,-0.503 -5.832,0.14404 -2.088,-1.944 -11.376,-0.288 -0.504,-6.19204 -2.52,-0.144 -0.215,-5.184 -4.753,-0.36 -10e-6,-3.096 1.584,-3.815 3.31201,-1.441 1.94499,-9.431 5.18301,0.503 1.656,5.112 4.24699,1.223 0.86501,2.017 12.024,-0.072 1.368,-0.72 8.569,-8.784 0.215,-3.312 -4.53601,-1.512 -3.45699,-2.663 -4.464,-0.361 -1.007,-9 2.376,-0.143 2.23199,-2.809 10e-6,-5.184 -1.65601,0.432 -1.441,0.072 -4.82299,1.008 h -4.248 l -6.336,-2.88 -4.32,-0.792 -3.384,-4.752 -5.688,-0.072 -3.528,1.944 -9.648,-0.936 -1.08,-0.216 0.648,-4.896 3.024,-1.08 -0.72,-2.88 0.072,-4.392 0.19878,-1.42325 5.34522,-0.16075 -0.504,-3.24 -2.305,-4.68 2.305,-3.96 -0.576,-9.576 -4.176,-4.176 -0.288,-2.952 -0.072,-1.008 3.456,-5.328 4.103,-2.16 1.657,-5.76 4.175,-1.08 1.729,-4.896 3.888,-0.36 -0.576,-4.68 -5.041,-1.08 v -4.32 l -3.455,0.36 -3.6,-3.24 -7.416,-2.232 -1.008,-0.936 0.288,-0.864 2.88,-4.392 3.744,-0.576 0.359,-7.416 1.945,-4.104 1.224,-0.792 8.496,-1.152 5.688,-2.736 0.98091,-0.40546 6.87209,8.17946 v 8.28 l 2.232,1.512 7.775,-0.072 6.049,-2.232 3.96,-3.528 6.048,0.072 2.088,3.672 7.704,-0.36 0.359,-1.872 5.112,-0.864 3.6,8.712 h 11.017 l 3.672,5.112 v 3.816 l -1.368,1.224 -0.432,13.752 -5.616,5.256 -6.048,0.72 -1.08,2.952 -2.16,2.952 -3.096,13.248 -2.448,1.656 3.097,3.312 v 5.904 l -0.792,2.016 1.439,2.448 -0.72,8.136 -3.744,2.808 -3.744,7.632 9,1.368 1.656,4.104 0.72,4.968 -3.888,2.521 -4.608,2.376 -1.368,6.048 -3.959,1.151 1.152,13.104 3.96,0.072 0.792,3.744 -1.44,1.655 0.721,3.024 z"
   id="37"
   inkscape:connector-curvature="0"
   inkscape:label="São João da Boa Vista"
   onmouseover="style.fill = &quot;rgb(255, 238, 88)&quot;    "
   onmouseout="style.fill = &quot;rgb(249, 168, 37)&quot;" />
   
   <path
   style="fill:#f9a825;fill-opacity:1;stroke:#ffffff;stroke-width:1px;stroke-linecap:butt;stroke-linejoin:miter;stroke-opacity:1"
   d="m 617.7092,354.23999 3.24,-0.216 2.448,-3.816 5.328,-4.247 0.576,-4.826 -1.729,-0.935 -0.647,-5.184 4.681,-2.952 3.023,-5.976 h 0.72 l -0.361,-4.896 1.801,-0.576 v -3.384 l -1.656,-3.024 0.216,-3.024 10.60154,-0.0351 1.27846,-1.1169 1.656,-5.256 4.607,-1.224 0.577,-5.832 3.24,-1.728 6.48,-0.576 0.432,3.6 5.328,0.072 0.864,3.24 3.096,0.288 1.584,2.592 0.143,5.112 -0.792,0.792 2.449,2.088 6.696,0.432 -0.1983,3.27876 4.44626,-0.61475 1.008,-3.528 5.544,-1.584 2.376,-4.464 0.792,-4.104 1.07999,-0.936 4.68001,1.008 2.087,2.52 7.057,-0.288 2.016,-1.44 0.648,-4.896 3.024,-1.08 -0.72,-2.88 0.072,-4.392 0.19878,-1.42325 5.34522,-0.16075 -0.504,-3.24 -2.305,-4.68 2.305,-3.96 -0.576,-9.576 -4.176,-4.176 -0.36,-3.96 3.456,-5.328 4.103,-2.16 1.657,-5.76 4.175,-1.08 1.729,-4.896 3.888,-0.36 -0.576,-4.68 -5.041,-1.08 v -4.32 l -3.455,0.36 -3.6,-3.24 -7.416,-2.232 -1.008,-0.936 -1.296,0.144 -1.584,12.096 -8.208,0.648 -2.376,4.608 -3.889,1.296 -1.223,0.072 -3.816,-1.296 -0.648,-3.168 -7.632,-0.216 -0.648,-2.016 -5.976,-0.792 -1.513,2.304 -5.975,0.72 -4.176,4.104 -3.96,6.048 -2.088,5.832 -0.864,0.648 -3.456,0.216 -1.152,-0.36 -7.919,-3.24 -0.937,-3.96 0.792,-1.152 -0.216,-2.88 -3.528,-0.936 -1.367,3.672 -3.889,2.592 -2.52,2.016 0.072,5.4 -4.536,1.512 v 5.976 l -1.512,1.512 v 3.672 l -0.145,1.08 -2.879,2.448 -0.648,3.24 -5.976,2.088 -2.592,4.032 -1.224,3.672 -8.352,0.36 -1.44,1.296 -1.439,-0.144 h -3.961 l -7.489,-8.568 -2.735,5.544 -0.433,4.824 -1.798,0.36 v 8.28 l -1.009,0.792 -1.296,1.224 -3.384,0.072 -3.311,-1.656 -6.913,-0.072 -0.648,1.224 0.072,2.88 2.592,2.736 0.216,5.256 2.017,0.432 0.791,2.88 5.616,0.648 0.432,0.792 -0.36,8.281 2.231,1.08 3.745,4.464 3.24,8.423 5.687,-2.088 6.769,0.289 5.184,4.967 3.528,0.72 3.672,6.84 z"
   id="36"
   inkscape:connector-curvature="0"
   inkscape:label="São Carlos"
   onmouseover="style.fill = &quot;rgb(255, 238, 88)&quot;"
   onmouseout="style.fill = &quot;rgb(249, 168, 37)&quot;" />
   
   <path
   style="fill:#f9a825;fill-opacity:1;stroke:#ffffff;stroke-width:1px;stroke-linecap:butt;stroke-linejoin:miter;stroke-opacity:1"
   d="m 740.94607,200.90654 -6.66891,3.14146 -8.496,1.152 -1.224,0.792 -1.945,4.104 -0.359,7.416 -3.744,0.576 -2.88,4.392 -0.288,0.864 -1.296,0.144 -1.584,12.096 -8.208,0.648 -2.376,4.608 -3.889,1.296 -1.223,0.072 -3.816,-1.296 -0.648,-3.168 -7.632,-0.216 -0.648,-2.016 -5.976,-0.792 -1.513,2.304 -5.975,0.72 -4.176,4.104 -3.96,6.048 -2.088,5.832 -0.864,0.648 -3.456,0.216 -9.071,-3.6 -0.937,-3.96 0.792,-1.152 -0.216,-2.88 -3.528,-0.936 -0.863,-0.504 -6.769,-5.112 -2.231,0.144 -0.866,1.152 -5.832,0.072 -1.655,-1.584 -5.256,-9.432 -2.448,-0.864 -1.296,-0.936 -0.144,-3.888 -4.608,-0.216 -0.36,-2.952 -4.392,0.072 -1.728,1.728 -7.776,2.592 -1.512,0.144 -3.46013,0.28055 0.004,-1.00055 0.072,-3.024 -1.441,-3.024 -5.111,-2.232 -0.288,-3.024 2.593,-3.168 -0.289,-1.008 -1.871,-5.04 -3.385,-1.728 h -7.416 l -1.008,0.432 -1.44,3.312 -7.344,-0.72 -6.696,0.936 -8.208,-10.728 -1.8,-4.248 -1.152,-0.936 -7.56,-1.152 0.288,-4.176 -0.864,-0.792 -2.448,-2.16 0.36,-4.968 -1.008,-2.592 3.672,-2.88 0.072,-2.376 1.44,-0.432 1.296,-1.584 1.08,-2.88 -0.144,-1.008 v -2.88 l -0.72483,-1.38748 -3.59517,-0.0525 -2.52,-2.88 -2.016,-0.864 -0.072,-2.376 1.224,-2.376 0.216,-8.928 h 0.72 l 2.16,-2.088 1.224,-0.216 2.232,2.88 2.736,0.072 2.448,-1.584 4.536,0.288 1.224,0.36 2.088,-0.36 5.328,-3.024 11.376,-0.504 1.296,-0.792 3.095,-4.824 12.385,-4.392 0.792,-1.224 -0.864,-9.36 2.305,-0.288 0.287,-4.896 -7.776,-3.816 0.288,-2.88 11.808,-2.736 0.936,-4.752 9.289,-3.312 5.543,2.016 5.041,4.464 h 1.367 l 5.544,0.72 1.872,2.376 8.855,-0.432 1.729,-5.256 4.464,-0.792 1.08,-4.104 2.736,1.296 0.071,5.904 2.809,-0.144 8.784,12.384 h 1.152 l 3.312,-0.576 2.304,7.344 5.975,0.576 1.946,3.96 3.743,3.24 1.08,0.432 3.311,0.072 3.889,4.968 4.752,-0.72 0.216,1.728 9.504,3.168 -1.008,3.312 2.16,2.304 1.153,0.432 7.704,2.16 1.367,3.816 3.456,0.144 1.08,-2.088 3.168,0.576 5.36822,4.08731 -0.10522,3.61469 1.944,2.016 2.232,4.752 4.319,1.512 1.44,5.976 0.216,15.912 2.16,7.992 5.903,2.376 v 6.048 z"
   id="32"
   inkscape:connector-curvature="0"
   inkscape:label="Ribeirão Preto"
   onmouseover="style.fill = &quot;rgb(255, 238, 88)&quot;"
   onmouseout="style.fill = &quot;rgb(249, 168, 37)&quot;" />
   
   <path
   style="fill:#c62828;fill-opacity:1;stroke:#ffffff;stroke-width:1px;stroke-linecap:butt;stroke-linejoin:miter;stroke-opacity:1"
   d="m 540.88518,359.27997 1.15198,-0.072 4.536,2.304 5.688,0.648 4.968,-1.079 3.168,-2.737 1.584,-0.648 6.12,0.36 3.096,0.361 4.176,4.823 0.504,4.032 13.17602,-0.57603 1.36798,0.072 -1.07996,-7.92001 1.584,-0.144 2.376,-2.304 6.12,-3.312 6.695,0.72 3.745,4.464 h 2.232 l 1.296,-0.359 4.32,-3.673 -0.64804,-7.12799 -3.672,-6.84 -3.528,-0.72 -5.184,-4.967 -6.769,-0.289 -5.687,2.088 -3.24,-8.423 -3.745,-4.464 -2.231,-1.08 0.36,-8.281 -0.432,-0.792 -5.616,-0.648 -0.791,-2.88 -2.017,-0.432 -0.216,-5.256 -2.592,-2.736 -0.072,-2.88 0.648,-1.224 -1.369,-0.36 h -2.231 l -1.512,-2.88 -1.009,-0.936 -2.015,-1.44 h -7.416 l -3.456,-3.384 -4.752,-1.152 -1.44,-4.752 -4.176,-0.216 -1.152,-2.448 -0.504,-1.512 -5.04,-2.88 -1.224,-2.808 -10.728,0.072 -6.048,3.456 -3.672,-0.288 -1.1735,-0.0367 -0.0505,5.36475 1.368,0.36 1.8,0.504 0.792,7.92 1.512,3.672 -1.008,7.848 1.368,1.368 5.688,0.864 2.376,-2.16 1.8,0.648 1.008,1.368 0.072,4.176 4.464,5.544 -1.728,1.656 -6.336,1.368 -1.6255,0.4055 2.2735,1.7545 7.2,10.656 0.072,7.704 -0.072,1.296 h 2.952 l 3.744,6.048 0.72,5.184 h 2.304 l 0.36,2.809 -3.744,2.159 z"
   id="20"
   inkscape:connector-curvature="0"
   inkscape:label="Jaú"
   onmouseover="style.fill=&quot;rgb(239, 83, 80)&quot;"
   onmouseout="style.fill=&quot;rgb(198, 40, 40)&quot;" />
   
   <path
   style="fill:#c62828;fill-opacity:1;stroke:#ffffff;stroke-width:1px;stroke-linecap:butt;stroke-linejoin:miter;stroke-opacity:1"
   d="m 408.76516,350.497 0.936,10.584 5.328,2.519 5.544,1.224 3.744,4.391 6.048,-0.214 -0.216,-7.705 1.944,-0.215 0.504,-3.961 5.472,-1.44 5.76,3.024 1.656,1.152 -0.504,1.872 3.024,4.536 6.768,1.296 1.44,2.592 0.144,2.376 -2.952,5.328 -0.792,2.952 v 1.441 l 1.656,5.327 1.368,-0.504 5.184,-3.312 11.592,-0.432 3.456,-4.032 h 0.72 l 5.688,-6.335 5.472,-0.074 1.08,0.074 3.312,8.783 2.736,0.792 2.736,5.688 -0.792,4.536 6.48,0.432 1.296,-0.072 h 3.6 l 5.904,2.303 8.064,0.504 0.144,-1.655 1.512,-4.536 2.952,-4.248 7.632,-0.288 2e-5,-3.45603 1.728,-0.144 0.576,-6.048 -0.216,-6.048 1.656,-0.503 -0.576,-8.425 -0.648,-1.441 3.95998,0.14503 -0.216,-5.04001 3.744,-2.159 -0.36,-2.809 h -2.304 l -0.72,-5.18399 -3.744,-6.04801 -2.952,1e-5 0.072,-1.296 -0.072,-7.70401 -7.2,-10.656 -2.2735,-1.7545 7.9615,-1.7735 1.728,-1.65599 -4.464,-5.54401 -0.072,-4.176 -1.008,-1.36799 -1.8,-0.648 -2.376,2.15999 -5.688,-0.864 -1.368,-1.368 1.008,-7.848 -1.512,-3.672 -0.792,-7.91999 -3.168,-0.864 0.0505,-5.36476 1.1735,0.0368 0.216,-3.024 -9.648,-6.48 v -3.024 l 1.872,-1.152 -0.216,-4.032 -4.32,-0.864 -1.944,1.656 -3.312,-0.504 -0.576,-2.592 -1.152,-0.432 -6.12,-0.36 -5.976,-11.952 -8.712,-0.792 -1.008,0.144 -4.536,-0.144 -2.2415,0.70275 0.7295,3.11325 -2.592,1.512 -0.576,7.56 -2.304,4.032 -4.248,3.456 -2.088,0.216 -2.592,1.368 -1.008,4.464 -13.896,7.704 -1.368,8.64 h -1.512 l -2.232,-2.304 h -4.536 v 3.816 l -8.28,0.288 -1.368,2.16 -1.512,1.296 7.632,6.696 0.72,1.08 6.192,4.464 0.72,2.88 3.24,1.512 0.144,6.552 1.368,0.72 7.056,2.16 0.648,4.249 2.16,1.799 v 5.184 l -3.312,0.721 -1.152,1.583 -0.72,5.904 -12.024,-0.216 -1.5395,-0.0155 0.0275,5.0555 -1.512,2.736 -10.944,-0.144 -1.08,-0.433 -3.168,6.769 -3.3235,-0.1085 z"
   id="9"
   inkscape:connector-curvature="0"
   inkscape:label="Bauru"
   onmouseover="style.fill=&quot;rgb(239, 83, 80)&quot;"
   onmouseout="style.fill=&quot;rgb(198, 40, 40)&quot;" />
   
   <path
   style="fill:#f9a825;fill-opacity:1;stroke:#ffffff;stroke-width:1px;stroke-linecap:butt;stroke-linejoin:miter;stroke-opacity:1"
   d="m 474.64516,242.20804 8.712,0.792 5.976,11.952 6.12,0.36 1.152,0.432 0.576,2.592 3.312,0.504 1.944,-1.656 4.32,0.864 0.216,4.03196 -1.872,1.152 v 3.02404 l 9.648,6.48 -0.216,3.02396 3.672,0.288 6.048,-3.456 10.728,-0.072 1.224,2.80794 5.04,2.88006 1.656,3.96 4.176,0.216 1.44,4.75194 4.752,1.152 3.456,3.38406 h 7.416 l 3.024,2.37594 1.512,2.88006 h 2.231 l 1.369,0.36 6.913,0.072 3.311,1.656 3.384,-0.072 2.305,-2.016 v -8.28 l 1.798,-0.36 0.433,-4.824 2.735,-5.544 7.489,8.568 h 3.961 l 1.439,0.144 1.44,-1.296 8.352,-0.36 1.224,-3.672 2.592,-4.032 5.976,-2.088 0.648,-3.24 2.879,-2.448 0.145,-1.08 v -3.672 l 1.512,-1.512 v -5.976 l 4.536,-1.512 -0.072,-5.4 2.52,-2.016 3.889,-2.592 1.367,-3.672 -0.863,-0.504 -6.769,-5.112 -2.231,0.144 -0.866,1.152 -5.832,0.072 -1.655,-1.584 -5.256,-9.432 -2.448,-0.864 -1.296,-0.936 -0.144,-3.888 -4.608,-0.216 -0.36,-2.952 -4.392,0.072 -1.728,1.728 -7.776,2.592 -4.97213,0.42455 0.076,-4.02455 -1.441,-3.024 -5.111,-2.232 -0.288,-3.024 2.593,-3.168 -2.16,-6.048 -3.385,-1.728 h -7.416 l -1.008,0.432 -1.44,3.312 -7.344,-0.72 -6.696,0.936 -8.208,-10.728 -1.8,-4.248 -1.152,-0.936 -7.56,-1.152 1.3e-4,0.936 -0.216,2.952 -2.592,2.304 0.144,9.936 -1.656,0.504 0.144,9.288 -0.71558,1.21807 -6.19642,0.006 -3.456,-1.872 -1.152,-2.088 -10.296,-0.216 -2.448,3.6 h -3.744 l 0.072,4.464 -2.304,2.592 h -1.224 l -6.264,0.504 -6.696,1.512 -0.288,2.52 -2.232,1.728 -7.92,9.36 -5.544,1.872 z"
   id="4"
   inkscape:connector-curvature="0"
   inkscape:label="Araraquara"
   onmouseover="style.fill = &quot;rgb(255, 238, 88)&quot;"
   onmouseout="style.fill = &quot;rgb(249, 168, 37)&quot;" />
   
   <path
   style="fill:#f9a825;fill-opacity:1;stroke:#ffffff;stroke-width:1px;stroke-linecap:butt;stroke-linejoin:miter;stroke-opacity:1"
   d="m 721.21325,148.73533 -5.36822,-4.08731 -3.168,-0.576 -1.08,2.088 -3.456,-0.144 -1.367,-3.816 -8.857,-2.592 -2.16,-2.304 1.008,-3.312 -9.504,-3.168 -0.216,-1.728 -4.752,0.72 -3.889,-4.968 -3.311,-0.072 -1.08,-0.432 -3.743,-3.24 -1.946,-3.96 -5.975,-0.576 -2.304,-7.344 -3.312,0.576 h -1.152 l -8.784,-12.384 -2.809,0.144 -0.071,-5.904 -2.736,-1.296 -1.08,4.104 -4.464,0.792 -1.729,5.256 -8.855,0.432 -1.872,-2.376 -5.544,-0.72 h -1.367 l -5.041,-4.464 -5.543,-2.016 0.43013,-1.15202 0.721,-4.248 1.872,-1.512 -0.217,-3.024 -2.015,-4.968 1.944,-1.44 4.536,-1.08 5.328,0.432 4.032,4.104 3.168,0.864 0.936,-0.576 7.992,-7.488 5.472,-1.008 2.231,-2.232 -0.215,-6.768 2.087,-4.968 0.073,-1.224 -0.717,-6.123 0.647,-5.328 1.513,-2.304 -0.792,-0.72 v -5.256 l 1.512,-2.304 20.305,-1.512 3.023,2.304 0.721,3.744 7.00838,0.26725 3.28662,-0.12325 0.505,-3.888 11.375,-4.104 7.849,7.128 -0.072,5.76 2.088,1.872 7.561,2.809 5.472,4.176 0.647,2.232 4.681,0.72 2.304,2.808 1.513,6.912 -1.584,6.84 -3.241,1.8 0.793,5.04 -2.16,13.176 -1.584,0.504 8.352,9.864 h 4.536 l 2.593,5.688 2.52,0.072 1.152,6.264 5.04,7.992 -3.097,6.624 -7.776,-0.216 -1.151,1.44 -2.088,8.856 -3.96,0.072 -0.648,6.264 -0.864,2.664 z"
   id="15"
   inkscape:connector-curvature="0"
   inkscape:label="Franca"
   onmouseover="style.fill = &quot;rgb(255, 238, 88)&quot; "
   onmouseout="style.fill = &quot;rgb(249, 168, 37)&quot;" />
   
   <path
   style="fill:#f9a825;fill-opacity:1;stroke:#ffffff;stroke-width:1px;stroke-linecap:butt;stroke-linejoin:miter;stroke-opacity:1"
   d="m 643.34416,48.957 -5.399,-0.144 -0.505,-6.048 -2.735,-2.376 -4.248,-0.576 -1.44,8.28 -5.327,0.72 -2.953,3.744 h -5.256 l -5.327,-5.256 -2.88,-5.904 -2.521,-3.024 -3.313,-0.36 -3.239,2.52 2.52,6.048 0.145,3.456 -5.761,-0.072 -6.696,-2.664 -6.983,0.288 -1.8,1.08 -22.68,0.936 -3.024,2.952 h -7.272 l -5.184,-2.232 -15.336,0.72 -3.744,3.024 0.504,3.168 -2.88,10.872 2.304,13.608 -0.72,3.456 -1.656,1.296 -0.653,1.586 0.792,4.32 2.88,4.68 0.072,3.6 0.72,0.937 1.584,0.576 0.36,6.048 -1.224,0.072 0.288,7.056 5.904,-0.072 1.368,3.312 v 6.768 l 0.936,0.864 4.032,0.936 1.008,1.224 1.296,4.608 v 2.448 l 0.57587,1.08002 2.232,2.88 2.736,0.072 2.448,-1.584 4.536,0.288 1.224,0.36 2.088,-0.36 5.328,-3.024 11.376,-0.504 1.296,-0.792 3.095,-4.824 12.385,-4.392 0.792,-1.224 -0.864,-9.36 2.305,-0.288 0.287,-4.896 -7.776,-3.816 0.288,-2.88 11.808,-2.736 0.936,-4.752 9.289,-3.312 0.43013,-1.15202 0.721,-4.248 1.872,-1.512 -0.217,-3.024 -2.015,-4.968 1.944,-1.44 4.536,-1.08 5.328,0.432 4.032,4.104 3.168,0.864 0.936,-0.576 7.992,-7.488 5.472,-1.008 2.231,-2.232 -0.215,-6.768 2.087,-4.968 0.073,-1.224 z"
   id="7"
   inkscape:connector-curvature="0"
   inkscape:label="Barretos"
   onmouseover="style.fill = &quot;rgb(255, 238, 88)&quot;"
   onmouseout="style.fill = &quot;rgb(249, 168, 37)&quot;" />
   
   <path
   style="fill:#c62828;fill-opacity:1;stroke:#ffffff;stroke-width:1px;stroke-linecap:butt;stroke-linejoin:miter;stroke-opacity:1"
   d="m 318.26116,297.144 2.592,7.128 7.92,2.016 v 3.384 l -3.672,5.688 -1.152,6.408 3.528,4.609 -1.8,2.951 0.36,5.616 -1.8,2.088 v 4.895 l 2.448,1.081 3.816,-2.16 h 2.592 l 5.112,3.455 1.512,8.137 8.136,0.937 2.16,-1.658 5.688,0.073 0.936,5.184 1.368,0.937 6.912,-0.074 0.072,-7.055 5.4,-2.736 3.168,0.216 11.664,5.544 6.912,0.216 1.2246,0.13846 -6e-4,-0.85946 -0.792,-0.718 1.08,-1.873 5.256,2.232 4.32,0.144 1.656,-2.808 3.888,0.217 -0.1555,-1.11746 3.3235,0.1085 3.168,-6.769 1.08,0.43296 10.944,0.14404 1.512,-2.736 -0.0275,-5.0555 13.5635,0.23146 0.72,-5.904 1.152,-1.58296 3.312,-0.721 v -5.184 l -2.16,-1.799 -0.648,-4.24904 -7.056,-2.15996 -1.368,-0.72004 -0.144,-6.552 -3.24,-1.51196 -0.72,-2.88004 -6.192,-4.46396 -0.72,-1.08 -7.632,-6.696 1.512,-1.296 -7.128,0.28796 0.216,-3.312 2.304,-3.96 0.072,-5.184 -1.512,-1.584 -7.488,-3.744 -1.512,0.936 -5.256,8.784 h -4.536 l -8.928,-4.464 -1.512,-0.72 -4.104,-1.152 -2.376,-5.328 -3.456,-0.432 -1.512,-3.816 -5.76,-1.872 -1.512,0.576 -3.024,2.304 h -5.976 l -3.744,2.952 h -3.024 l -1.08,1.152 -1.44,2.016 v 6.48 l -2.52,0.144 -0.36,4.176 -5.04,1.224 v 6.552 l -17.208,1.728 -1.152,0.072 -1.872,0.432 -1.368,3.024 z"
   id="24"
   inkscape:connector-curvature="0"
   inkscape:label="Marília"
   onmouseover="style.fill=&quot;rgb(239, 83, 80)&quot;"
   onmouseout="style.fill=&quot;rgb(198, 40, 40)&quot;" />
   
   <path
   style="fill:#4527a0;fill-opacity:1;stroke:#ffffff;stroke-width:1px;stroke-linecap:butt;stroke-linejoin:miter;stroke-opacity:1"
   d="m 366.50116,263.376 -1.512,0.576 -3.024,2.304 h -5.976 l -3.744,2.952 h -3.024 l -1.08,1.152 -1.44,2.016 v 6.48 l -2.52,0.144 -0.36,4.176 -5.04,1.224 v 6.552 l -17.208,1.728 -1.152,0.072 -1.872,0.432 -1.368,3.024 -2.808,0.072 -0.359,-3.096 -6.336,-3.528 -4.104,-0.216 -4.464,-3.816 -4.249,-0.432 -1.15085,0.34612 0.0699,-1.35412 -11.016,0.072 -4.896,-4.176 -13.24004,-2.02965 -0.36596,-4.59535 -1.152,0.216 -14.328,-4.464 -1.44,0.72 h -2.088 l -2.376,-2.016 -1.081,-0.215 -0.144,-3.312 -4.248,0.216 -0.576,-2.592 -4.464,-0.288 -0.72,-1.008 -0.648,-1.368 -2.376,-2.88 v -2.376 l 1.656,-1.8 -0.144,-2.52 -5.112,-1.08 -0.936,-1.296 4.536,-8.136 -11.952,-2.16 -0.288,-1.296 -0.144,-2.016 4.32,-6.984 1.368,-5.544 h 0.72 l -0.72,-18.72 h 0.72 l -0.144,-8.856 1.296,0.72 11.304,5.976 1.008,0.504 12.816,3.024 1.656,1.512 1.08,0.792 1.44,1.008 1.8,-0.144 1.152,4.248 7.776,-0.72 1.296,0.504 5.256,1.08 2.52,3.672 0.144,3.528 1.44,2.592 0.864,1.512 5.616,-0.072 1.368,1.944 2.16,0.432 2.448,-0.072 0.36,3.096 1.368,-0.072 4.392,-0.072 11.808,11.448 0.792,-0.144 0.936,4.32 0.792,1.368 12.168,0.216 1.8,-0.216 h 7.848 l 1.584,2.664 13.608,0.72 h 1.368 l 2.016,0.216 1.368,2.088 7.56,2.088 9.6692,7.90207 z"
   id="44"
   inkscape:connector-curvature="0"
   inkscape:label="Tupã"
   onmouseover="style.fill=&quot;rgb(126, 87, 194)&quot;"
   onmouseout="style.fill=&quot;rgb(69, 39, 160)&quot;" />
   
   <path
   style="fill:#4527a0;fill-opacity:1;stroke:#ffffff;stroke-width:1px;stroke-linecap:butt;stroke-linejoin:miter;stroke-opacity:1"
   d="m 135.67316,218.444 2.736,-3.096 3.816,-3.312 1.224,-4.104 3.024,-5.76 4.68,-5.184 0.216,-11.592 -2.952,-6.048 0.144,-9 3.6,-1.44 7.488,-1.584 1.584,-4.536 1.944,-2.448 1.296,-4.68 4.104,-5.256 8.784,-1.368 2.232,-2.736 1.512,-5.256 -0.432,-6.12 -1.152,-5.76 1.08,-10.872 4.104,-9.288 3.384,-3.816 3.24,-1.584 4.392,-4.536 8.136,-11.232 4.752,-1.944 1.296,-5.4 9.432,-9.432 6.624,-3.6 3.888,-0.936 12.816,-0.864 2.736,-1.44 1.292,0.58 3.672,1.8 2.232,4.104 2.232,1.296 1.008,4.392 0.072,1.008 -1.008,2.016 -2.952,1.296 -4.176,0.216 -1.44,1.224 -0.288,2.088 -9.288,0.576 -0.864,3.384 12.024,7.56 h 2.952 l 3.96,3.312 10.584,-1.008 1.008,-0.216 13.896,-0.576 h 1.224 l 5.184,-0.36 1.368,-0.144 4.248,0.144 -0.216,1.368 v 8.784 l -5.976,0.072 0.072,6.048 -0.072,1.296 0.144,2.664 -2.952,9.936 -4.32,3.456 0.576,1.656 0.145,2.88 -0.218,1.512 v 0.792 l -2.952,5.976 -1.079,1.44 -2.664,0.072 -1.512,-0.576 -3.312,-0.936 -4.896,-2.592 -0.36,-2.376 -4.968,-0.72 -4.392,-2.376 -0.288,-1.872 h -1.08 l -2.088,3.6 -4.104,-0.36 -0.72,7.56 3.744,4.392 v 4.464 l -8.136,8.64 -2.448,6.264 -9.504,1.224 -0.144,4.896 -5.4,3.816 -0.792,11.664 -1.296,1.728 1.368,2.376 -0.648,1.44 -1.368,1.224 0.36,3.384 -2.952,2.016 -1.584,13.32 -1.656,1.512 0.144,3.24 -4.464,3.096 1.512,8.784 -2.16,0.432 v 3.384 l -0.36,1.152 -3.744,3.024 -0.72,2.52 -3.096,0.936 -0.288,2.232 -1.296,0.648 -4.104,-0.36 -1.28959,-0.29147 0.28159,-2.73253 -3.312,0.072 -3.528,-2.016 -3.096,0.072 -1.008,-0.144 -5.184,-4.32 -3.96,-0.504 -1.29376,-0.68489 0.28576,-4.85911 -14.616,-0.72 -6.624,-0.936 -7.344,-4.608 -0.864,-0.936 -7.2,-4.248 z"
   id="2"
   inkscape:connector-curvature="0"
   inkscape:label="Andradina"
   onmouseover="style.fill=&quot;rgb(126, 87, 194)&quot;"
   onmouseout="style.fill=&quot;rgb(69, 39, 160)&quot;" />
   
   <path
   style="fill:#4527a0;fill-opacity:1;stroke:#ffffff;stroke-width:1px;stroke-linecap:butt;stroke-linejoin:miter;stroke-opacity:1"
   d="m 221.13316,191.304 1.368,2.376 13.60805,7.2 12.816,3.024 4.176,3.312 1.8,-0.144 1.152,4.248 7.776,-0.72 1.296,0.504 5.256,1.08 2.52,3.672 0.144,3.528 2.304,4.104 5.616,-0.072 1.368,1.944 2.16,0.432 2.448,-0.072 0.36,3.096 5.76,-0.144 11.808,11.448 0.792,-0.144 0.936,4.32 0.792,1.368 12.168,0.216 1.8,-0.216 h 7.848 l 1.584,2.664 14.976,0.72 2.016,0.216 0.71995,-1.008 2.232,-1.512 1.08,-2.304 16.609,0.877 0.095,-1.381 0.216,-7.704 3.096,-0.36 0.576,-2.736 0.36,-1.512 h 3.744 1.296 l 5.184,-0.288 0.36,-2.088 5.112,-0.576 1.656,-6.408 3.312,-4.752 4.536,-2.232 0.72,-3.744 0.36,-10.08 0.432,-1.152 h 3.744 l 0.72,-5.256 -3.168,-2.88 0.648,-3.672 -8.856,-1.8 -7.56,0.144 0.36,-1.44 -0.144,-4.608 3.384,-7.128 -3.168,-0.36 -0.216,-8.208 -2.088,-4.824 -3.672,-0.072 -1.8,-2.304 -0.72,-1.08 2.304,-1.44 0.432,-1.872 -2.376,-3.24 v -3.456 l 1.584,-1.368 1.512,-6.264 -0.864,-4.32 -9.864,0.072 -0.864,-0.432 0.072,-5.688 -5.04,0.504 v -3.672 l -8.64,0.144 0.144,-1.728 -2.52,-0.072 -2.088,5.112 -1.656,2.448 0.072,4.392 -0.352,0.97475 -4.904,-0.0387 -1.44,0.216 -4.176,0.072 -0.216,-4.248 -5.472,-2.16 h -3.6 l -4.032,-1.44 -2.376,-2.304 -14.04,0.072 -2.736,-1.728 v -2.952 l -2.376,-1.8 -2.808,-0.36 -1.08,-1.512 -1.656,-0.072 -2.232,1.728 -3.384,-0.288 -1.224,-3.6 -1.296,-1.8 -3.6,-0.216 0.144,2.664 -2.952,9.936 -4.32,3.456 0.576,1.656 0.145,2.88 -0.218,1.512 v 0.792 l -2.952,5.976 -1.079,1.44 -2.664,0.072 -1.512,-0.576 -3.312,-0.936 -4.896,-2.592 -0.36,-2.376 -4.968,-0.72 -4.392,-2.376 -0.288,-1.872 h -1.08 l -2.088,3.6 -4.104,-0.36 -0.72,7.56 3.744,4.392 v 4.464 l -8.136,8.64 -2.448,6.264 -9.504,1.224 -0.144,4.896 -5.4,3.816 -0.792,11.664 z"
   id="3"
   inkscape:connector-curvature="0"
   inkscape:label="Araçatuba"
   onmouseover="style.fill=&quot;rgb(126, 87, 194)&quot;"
   onmouseout="style.fill=&quot;rgb(69, 39, 160)&quot;" />
   
   <path
   style="fill:#4527a0;fill-opacity:1;stroke:#ffffff;stroke-width:1px;stroke-linecap:butt;stroke-linejoin:miter;stroke-opacity:1"
   d="m 245.40116,64.22 2.16,-4.176 5.977,-2.232 1.08,-7.416 3.24,-8.136 2.304,-2.808 3.6,-8.712 8.28,-4.32 5.543,-2.376 7.992,-3.96 8.928,-2.232 7.848,-0.936 5.256,-6.12 0.576,-1.728 5.041,-5.544 4.968,0.144 5.616,-3.168 h 3.6 l 5.4,1.872 5.832,5.616 0.504,1.512 1.728,0.792 h 2.304 l 3.6,2.304 h 24.264 l 2.232,1.08 2.736,0.145 0.648,2.016 4.032,3.24 0.787,1.444 -0.36,7.632 -2.664,0.216 0.072,3.024 -3.096,0.144 v 3.96 l 1.008,1.8 1.872,0.216 0.144,-1.08 3.456,-0.145 1.44,2.592 0.144,3.816 1.008,0.936 v 6.84 l 0.576,1.08 0.936,1.369 -0.936,1.944 0.345,2.577 -1.497,0.302 h -2.664 l 0.216,0.936 -2.736,1.729 -0.432,5.832 -1.296,0.576 -0.072,3.528 -1.584,1.295 -0.144,6.12 -4.32,1.368 -1.8,0.36 -0.36,7.056 -5.688,1.872 -0.288,1.8 -0.936,1.224 -8.856,0.936 0.36,4.464 -3.312,4.536 -0.432,16.704 -1.44,2.232 -0.216,2.232 4.622,0.273 0.274,1.167 -2.088,5.112 -1.656,2.448 0.072,4.392 -0.352,0.97475 -4.904,-0.0387 -1.44,0.216 -4.176,0.072 -0.216,-4.248 -5.472,-2.16 h -3.6 l -4.032,-1.44 -2.376,-2.304 -14.04,0.072 -2.736,-1.728 v -2.952 l -2.376,-1.8 -2.808,-0.36 -1.08,-1.512 -1.656,-0.072 -2.232,1.728 -3.384,-0.288 -1.224,-3.6 -1.296,-1.8 -3.6,-0.21605 v -7.344 l 5.976,-0.072 V 98.28 l 0.216,-1.368 -4.248,-0.144 -7.776,0.504 -13.896,0.576 -1.008,0.216 -10.584,1.008 -3.96,-3.312 h -2.952 l -12.024,-7.56 0.864,-3.384 9.288,-0.576 0.288,-2.088 1.44,-1.224 4.176,-0.216 2.952,-1.296 1.008,-2.016 -0.072,-1.008 -1.008,-4.392 -2.232,-1.296 -2.232,-4.104 -3.672,-1.8 z"
   id="19"
   inkscape:connector-curvature="0"
   inkscape:label="Jales"
   onmouseover="style.fill=&quot;rgb(126, 87, 194)&quot;"
   onmouseout="style.fill=&quot;rgb(69, 39, 160)&quot;" />
   
   <path
   style="fill:#4527a0;fill-opacity:1;stroke:#ffffff;stroke-width:1px;stroke-linecap:butt;stroke-linejoin:miter;stroke-opacity:1"
   d="m 380.69016,19.077 16.416,0.288 2.088,1.368 7.2,0.144 5.256,-1.728 24.624,0.144 1.656,-2.52 7.776,1.224 4.392,4.824 v 0.648 l 1.512,1.512 v 0.792 l 0.72,0.72 h 3.024 l 0.792,0.792 10.944,-0.072 0.72,-0.72 8.424,0.36 0.864,3.384 -4.608,3.096 0.072,18.576 3.6,5.976 0.432,6.552 2.232,1.368 1.152,2.88 7.848,0.216 0.144,-1.296 5.112,-1.8 5.04,-16.56 7.2,-0.216 5.184,3.168 2.88,15.624 -1.08,15.408 7.632,3.24 -0.653,1.586 0.792,4.32 2.88,4.68 0.072,3.6 0.72,0.937 1.584,0.576 0.36,6.048 -1.224,0.072 0.288,7.056 5.904,-0.072 1.368,3.312 v 6.768 l 0.936,0.864 4.032,0.936 1.008,1.224 1.296,4.608 v 2.448 l 0.57587,1.08002 -1.224,0.216 -2.16,2.088 h -0.72 l -3.59987,-0.86402 -1.656,1.08 -4.032,0.432 -5.04,-3.6 -1.368,-0.72 -4.536,0.72 -1.44,3.744 v 2.232 h -3.816 l -0.792,-2.52 -3.672,0.864 -3.024,-0.576 -1.512,-2.952 -4.248,-1.944 -1.656,0.792 -1.8,3.528 0.288,2.808 -0.792,1.944 -1.8,2.088 -0.144,5.688 -2.088,2.736 0.864,6.264 0.576,2.304 -0.432,2.232 -2.376,0.072 -3.6,-2.304 -1.512,-1.512 -1.224,-2.88 -0.36,-1.872 -1.368,-1.44 -3.744,-2.52 -1.512,0.432 -2.448,2.88 -0.216,3.312 -2.448,1.296 -0.86665,1.12421 0.65065,2.04379 0.792,3.6 1.08,0.648 -0.072,1.584 -2.88,1.224 -0.36,1.728 0.36,1.512 3.024,1.224 5.616,0.072 4.248,0.504 -0.072,4.32 1.08,2.088 2.88,1.296 3.312,-0.216 -0.936,4.248 -3.744,3.744 -1.512,3.744 -4.392,2.952 -1.584,0.072 0.288,1.224 -0.072,3.168 3.888,2.664 1.944,6.84 11.952,0.36 0.576,4.752 3.168,3.45607 -6.696,1.512 -0.288,2.52 -2.232,1.728 -7.92,9.36 -5.544,1.872 -0.288,4.67997 -1.008,0.144 -4.536,-0.144 -2.952,-4.46404 -1.728,-5.976 -2.232,-4.032 -9.864,-0.648 -4.176,-1.152 -1.512,-3.96 -5.256,-3.672 -0.864,-4.32 -2.592,-1.368 -4.392,-7.704 -1.44,-1.152 -2.016,-0.072 -1.224,-1.584 -8.64,-0.144 -0.36,-1.44 -4.536,-1.224 -0.144,-2.16 -1.8164,-0.62679 -8.3356,-0.23721 -1.08,-1.224 -3.168,-2.88 0.648,-3.672 -8.856,-1.8 -7.56,0.144 0.36,-1.44 -0.144,-4.608 3.384,-7.128 -3.168,-0.36 -0.216,-8.208 -2.088,-4.824 -3.672,-0.072 -2.52,-3.384 2.304,-1.44 0.432,-1.872 -2.376,-3.24 v -3.456 l 1.584,-1.368 1.512,-6.264 -0.864,-4.32 -9.864,0.072 -0.864,-0.432 0.072,-5.688 -5.04,0.504 v -3.672 l -8.64,0.144 0.144,-1.728 -2.52,-0.072 -0.274,-1.167 -4.622,-0.273 0.216,-2.232 1.44,-2.232 0.432,-16.704 3.312,-4.536 -0.36,-4.464 8.856,-0.936 0.936,-1.224 0.288,-1.8 5.688,-1.872 0.36,-7.056 1.8,-0.36 4.32,-1.368 0.144,-6.12 1.584,-1.295 0.072,-3.528 1.296,-0.576 0.432,-5.832 2.736,-1.729 -0.216,-0.936 h 2.664 l 1.497,-0.302 -0.345,-2.577 0.936,-1.944 -1.512,-2.449 v -6.84 l -1.008,-0.936 -0.144,-3.816 -1.44,-2.592 -3.456,0.145 -0.144,1.08 -1.872,-0.216 -1.008,-1.8 v -3.96 l 3.096,-0.144 -0.072,-3.024 2.664,-0.216 0.36,-7.632 z"
   id="38"
   inkscape:connector-curvature="0"
   inkscape:label="São José do Rio Preto"
   onmouseover="style.fill=&quot;rgb(126, 87, 194)&quot;"
   onmouseout="style.fill=&quot;rgb(69, 39, 160)&quot;" />
   
   <path
   style="fill:#f9a825;fill-opacity:1;stroke:#ffffff;stroke-width:1px;stroke-linecap:butt;stroke-linejoin:miter;stroke-opacity:1"
   d="m 467.94916,170.784 2.88,-1.224 0.072,-1.584 -1.08,-0.648 -0.792,-3.6 -0.65065,-2.04379 0.86665,-1.12421 2.448,-1.296 0.216,-3.312 2.448,-2.88 1.512,-0.432 3.744,2.52 1.368,1.44 0.36,1.872 1.224,2.88 1.512,1.512 3.6,2.304 2.376,-0.072 0.432,-2.232 -0.576,-2.304 -0.864,-6.264 2.088,-2.736 0.144,-5.688 1.8,-2.088 0.792,-1.944 -0.288,-2.808 1.8,-3.528 1.656,-0.792 4.248,1.944 1.512,2.952 3.024,0.576 3.672,-0.864 0.792,2.52 h 3.816 v -2.232 l 1.44,-3.744 4.536,-0.72 1.368,0.72 5.04,3.6 4.032,-0.432 1.656,-1.08 3.59987,0.86402 -0.216,8.928 -1.224,2.376 0.072,2.376 2.016,0.864 2.52,2.88 3.59517,0.0525 0.72483,1.38748 v 2.88 l 0.144,1.008 -1.08,2.88 -1.296,1.584 -1.44,0.432 -0.072,2.376 -3.672,2.88 1.008,2.592 -0.36,4.968 3.312,2.952 -0.50387,8.064 -2.592,2.304 0.144,9.936 -1.656,0.504 0.144,9.288 -0.71558,1.21807 -6.19642,0.006 -3.456,-1.872 -1.152,-2.088 -10.296,-0.216 -2.448,3.6 h -3.744 l 0.072,4.464 -2.304,2.592 h -1.224 l -6.264,0.504 -3.168,-3.45607 -0.576,-4.752 -11.952,-0.36 -1.944,-6.84 -3.888,-2.664 0.072,-3.168 -0.288,-1.224 1.584,-0.072 4.392,-2.952 1.512,-3.744 3.744,-3.744 0.936,-4.248 -3.312,0.216 -2.88,-1.296 -1.08,-2.088 0.072,-4.32 -4.248,-0.504 -5.616,-0.072 -3.024,-1.224 -0.36,-1.512 z"
   id="14"
   inkscape:connector-curvature="0"
   inkscape:label="Catanduva"
   onmouseover="style.fill = &quot;rgb(255, 238, 88)&quot;"
   onmouseout="style.fill = &quot;rgb(249, 168, 37)&quot;" />
   
   <path
   style="fill:#c62828;fill-opacity:1;stroke:#ffffff;stroke-width:1px;stroke-linecap:butt;stroke-linejoin:miter;stroke-opacity:1"
   d="m 347.78121,249.264 1.368,2.088 7.56,2.088 9.6692,7.90207 0.12275,2.03393 5.76,1.872 1.512,3.816 3.456,0.432 2.376,5.328 4.104,1.152 1.512,0.72 8.928,4.464 h 4.536 l 5.256,-8.784 1.512,-0.936 7.488,3.744 1.512,1.584 -0.072,5.184 -2.304,3.96 -0.216,3.312 7.128,-0.28796 1.368,-2.16 8.28,-0.28804 v -3.81596 l 4.536,-4e-5 2.232,2.30404 h 1.512 l 1.368,-8.64004 13.896,-7.70396 1.008,-4.46404 2.592,-1.368 2.088,-0.216 4.248,-3.45596 2.304,-4.03204 0.576,-7.56 2.592,-1.51196 -0.7295,-3.11325 2.2415,-0.70275 -2.952,-4.46404 -1.728,-5.976 -2.232,-4.032 -9.864,-0.648 -4.176,-1.152 -1.512,-3.96 -5.256,-3.672 -0.864,-4.32 -2.592,-1.368 -4.392,-7.704 -1.44,-1.152 -2.016,-0.072 -1.224,-1.584 -8.64,-0.144 -0.36,-1.44 -4.536,-1.224 -0.144,-2.16 -1.8164,-0.62679 -8.3356,-0.23721 -1.08,-1.224 -0.72,5.256 h -3.744 l -0.432,1.152 -0.36,10.08 -0.72,3.744 -4.536,2.232 -3.312,4.752 -1.656,6.408 -5.112,0.576 -0.36,2.088 -5.07612,0.32968 -5.14788,-0.0417 -0.936,4.248 -3.096,0.36 -0.311,9.085 -16.609,-0.877 -1.08,2.304 -2.232,1.512 z"
   id="23"
   inkscape:connector-curvature="0"
   inkscape:label="Lins"
   onmouseover="style.fill=&quot;rgb(239, 83, 80)&quot;"
   onmouseout="style.fill=&quot;rgb(198, 40, 40)&quot;" />
   
   
   </svg>